<svg width="95" height="77" viewBox="0 0 95 77" fill="none" xmlns="http://www.w3.org/2000/svg">
<g clip-path="url(#clip0_3117_46)">
<path d="M24.8645 28.6877C24.8641 24.2485 26.1801 19.9088 28.6461 16.2175C31.1121 12.5262 34.6174 9.64907 38.7186 7.94993C42.8197 6.25078 47.3327 5.80595 51.6867 6.67169C56.0407 7.53743 60.0402 9.67485 63.1795 12.8137C66.3187 15.9525 68.4566 19.9517 69.323 24.3056C70.1893 28.6595 69.7451 33.1725 68.0465 37.2739C66.3479 41.3753 63.4712 44.8809 59.7802 47.3474C56.0892 49.8139 51.7497 51.1305 47.3105 51.1307C44.363 51.131 41.4444 50.5507 38.7212 49.423C35.998 48.2952 33.5236 46.6421 31.4393 44.5581C29.3549 42.4741 27.7015 39.9999 26.5734 37.2768C25.4453 34.5538 24.8646 31.6352 24.8645 28.6877Z" fill="#FFF4E6"/>
<path d="M47.6364 9.02466C47.6364 9.02466 28.7364 20.4187 41.1974 39.8247C41.1974 39.8247 33.9914 36.1937 32.4044 25.6077C32.3564 25.1697 31.8394 24.6487 31.4654 25.7127C27.7224 36.4077 33.3104 49.8367 48.5744 49.1887C63.9624 48.5347 67.4544 30.8637 59.5294 19.9497C59.2424 19.5027 58.8294 19.3867 59.0664 20.2497C60.6054 25.8287 58.0424 32.3737 57.1274 33.8547C61.7274 18.7417 48.6524 9.15466 47.6364 9.02666" fill="#5C1414"/>
<path d="M87.2314 76.0586V62.3026H94.4404V63.3356H88.4014V68.4206H94.0314V69.4526H88.4014V75.0256H94.5174V76.0586H87.2314ZM80.0914 76.2936C79.2491 76.359 78.4076 76.1569 77.6869 75.7161C76.9661 75.2753 76.4029 74.6183 76.0774 73.8386C75.8713 73.2558 75.7599 72.6437 75.7474 72.0256H76.9164C76.8924 72.4557 76.9598 72.8861 77.1141 73.2883C77.2684 73.6905 77.5062 74.0554 77.8117 74.3591C78.1172 74.6628 78.4835 74.8984 78.8866 75.0503C79.2897 75.2023 79.7205 75.2671 80.1504 75.2406C80.5323 75.2744 80.917 75.2302 81.2813 75.1108C81.6456 74.9914 81.9818 74.7993 82.2696 74.5461C82.5574 74.2929 82.7908 73.9839 82.9556 73.6377C83.1204 73.2916 83.2132 72.9157 83.2284 72.5326C83.2289 72.1283 83.1295 71.7301 82.9392 71.3734C82.7489 71.0167 82.4735 70.7124 82.1374 70.4876C81.1224 69.8317 80.0456 69.2767 78.9224 68.8306C78.4436 68.6308 77.9866 68.3825 77.5584 68.0896C77.1327 67.8017 76.7852 67.4124 76.5473 66.9568C76.3093 66.5012 76.1884 65.9936 76.1954 65.4796C76.1954 63.2586 78.1434 62.0696 80.1684 62.0696C80.992 62.0071 81.8122 62.2281 82.4928 62.696C83.1735 63.1638 83.6737 63.8503 83.9104 64.6416C83.994 64.9863 84.0396 65.339 84.0464 65.6936H82.8964C82.8717 65.2743 82.7661 64.8638 82.5854 64.4846C82.337 64.0442 81.9695 63.6827 81.525 63.4417C81.0805 63.2006 80.5771 63.0897 80.0724 63.1216C79.7451 63.0924 79.4153 63.1292 79.1024 63.2297C78.7896 63.3303 78.5001 63.4926 78.2511 63.7071C78.0022 63.9216 77.7988 64.1838 77.653 64.4783C77.5072 64.7728 77.422 65.0936 77.4024 65.4216C77.4024 68.4986 84.4564 67.8566 84.4564 72.4536C84.4564 74.9476 82.4104 76.2936 80.0914 76.2936ZM69.3154 76.2926C68.4732 76.358 67.6319 76.1558 66.9113 75.715C66.1908 75.2742 65.6277 74.6172 65.3024 73.8376C65.0947 73.2551 64.9826 72.6429 64.9704 72.0246H66.1394C66.1158 72.4547 66.1834 72.885 66.3379 73.2871C66.4923 73.6893 66.7302 74.0542 67.0357 74.3578C67.3413 74.6615 67.7076 74.897 68.1107 75.049C68.5138 75.201 68.9445 75.2659 69.3744 75.2396C69.7564 75.2735 70.1412 75.2295 70.5056 75.1101C70.87 74.9908 71.2064 74.7987 71.4943 74.5455C71.7822 74.2923 72.0157 73.9832 72.1806 73.637C72.3454 73.2908 72.4383 72.9148 72.4534 72.5316C72.4539 72.1273 72.3545 71.7291 72.1642 71.3724C71.9739 71.0157 71.6985 70.7114 71.3624 70.4866C70.3471 69.8313 69.2703 69.2763 68.1474 68.8296C67.6685 68.6301 67.2115 68.3818 66.7834 68.0886C66.3569 67.8014 66.0088 67.4122 65.7706 66.9565C65.5324 66.5008 65.4117 65.9928 65.4194 65.4786C65.4194 63.2576 67.3684 62.0686 69.3934 62.0686C70.217 62.006 71.0372 62.2272 71.7178 62.6952C72.3983 63.1633 72.8982 63.8501 73.1344 64.6416C73.218 64.9863 73.2636 65.339 73.2704 65.6936H72.1204C72.0962 65.2743 71.9905 64.8636 71.8094 64.4846C71.5613 64.0441 71.194 63.6826 70.7497 63.4415C70.3053 63.2003 69.8019 63.0895 69.2974 63.1216C68.9701 63.0924 68.6403 63.1292 68.3274 63.2297C68.0146 63.3303 67.7251 63.4926 67.4761 63.7071C67.2272 63.9216 67.0238 64.1838 66.878 64.4783C66.7322 64.7728 66.647 65.0936 66.6274 65.4216C66.6274 68.4986 73.6794 67.8566 73.6794 72.4536C73.6794 74.9476 71.6344 76.2926 69.3154 76.2926ZM60.6444 62.3026H61.8524V76.0586H60.6444V62.3026ZM56.9804 72.9406C56.5904 75.2986 54.6044 76.2926 52.3804 76.2926C50.4904 76.2926 48.5424 75.5326 47.9184 73.5836C47.7491 72.9888 47.6769 72.3705 47.7044 71.7526V62.3036H48.8734C48.8734 65.3806 48.8534 68.4396 48.8534 71.5196C48.8127 72.3066 48.9734 73.0911 49.3204 73.7986C49.656 74.2895 50.1165 74.6819 50.6545 74.9352C51.1924 75.1886 51.7883 75.2936 52.3804 75.2396C53.0966 75.2358 53.8027 75.0697 54.4454 74.7536C56.0634 73.9146 55.8684 72.1626 55.8684 70.6226V62.3036H57.0574V71.7136C57.0606 72.124 57.0342 72.534 56.9784 72.9406M40.7484 76.2926C39.9062 76.358 39.0649 76.1558 38.3443 75.715C37.6238 75.2742 37.0607 74.6172 36.7354 73.8376C36.5277 73.2551 36.4156 72.6429 36.4034 72.0246H37.5724C37.5487 72.455 37.6164 72.8855 37.7711 73.2879C37.9257 73.6902 38.1638 74.0553 38.4697 74.359C38.7756 74.6627 39.1423 74.8982 39.5458 75.05C39.9492 75.2018 40.3802 75.2664 40.8104 75.2396C41.1924 75.2735 41.5772 75.2295 41.9416 75.1101C42.306 74.9908 42.6424 74.7987 42.9303 74.5455C43.2182 74.2923 43.4517 73.9832 43.6166 73.637C43.7814 73.2908 43.8743 72.9148 43.8894 72.5316C43.8899 72.1273 43.7905 71.7291 43.6002 71.3724C43.4099 71.0157 43.1345 70.7114 42.7984 70.4866C41.7832 69.8311 40.7064 69.2761 39.5834 68.8296C39.1044 68.6305 38.6472 68.3821 38.2194 68.0886C37.7929 67.8014 37.4448 67.4122 37.2066 66.9565C36.9684 66.5008 36.8477 65.9928 36.8554 65.4786C36.8554 63.2576 38.8034 62.0686 40.8294 62.0686C41.653 62.006 42.4732 62.2272 43.1538 62.6952C43.8343 63.1633 44.3342 63.8501 44.5704 64.6416C44.655 64.9861 44.7006 65.339 44.7064 65.6936H43.5554C43.5295 65.2743 43.4233 64.8638 43.2424 64.4846C42.9943 64.0441 42.627 63.6826 42.1827 63.4415C41.7383 63.2003 41.235 63.0895 40.7304 63.1216C40.4031 63.0924 40.0733 63.1292 39.7604 63.2297C39.4476 63.3303 39.1581 63.4926 38.9091 63.7071C38.6602 63.9216 38.4568 64.1838 38.311 64.4783C38.1652 64.7728 38.08 65.0936 38.0604 65.4216C38.0604 68.4986 45.1104 67.8586 45.1104 72.4586C45.1104 74.9526 43.0644 76.2976 40.7454 76.2976M27.7564 64.8106C25.3394 64.8106 24.5984 67.1696 24.5984 69.1766C24.5984 71.2436 25.3194 73.5436 27.7984 73.5436C30.1984 73.5436 30.9564 71.2616 30.9564 69.2356C30.9564 67.1496 30.2734 64.8106 27.7564 64.8106ZM27.7754 76.3696C23.4874 76.3696 20.8174 73.3866 20.8174 69.1766C20.8174 64.9286 23.4674 61.9846 27.7954 61.9846C32.0824 61.9846 34.7534 64.9846 34.7534 69.1766C34.7534 73.3866 32.0634 76.3696 27.7754 76.3696ZM14.8934 62.2976H18.5394V76.0586H14.8934V62.2976ZM6.59342 70.2096H4.05042V73.3676H6.73042C7.86142 73.3676 8.91342 73.1736 8.91342 71.8086C8.91342 70.3466 7.76342 70.2096 6.59342 70.2096ZM6.41742 64.9666H4.05042V67.6586H6.16642C7.17842 67.6586 8.25142 67.5586 8.25142 66.2746C8.25142 65.1446 7.35142 64.9696 6.41742 64.9696M10.6864 75.2996C9.25541 75.9128 7.6981 76.1734 6.14542 76.0596H0.482422V62.2976H6.12642C7.86142 62.2976 10.0264 62.3366 11.1924 63.8566C11.6277 64.441 11.8547 65.1542 11.8374 65.8826C11.8607 66.5076 11.6707 67.122 11.2987 67.6248C10.9268 68.1276 10.3949 68.489 9.79042 68.6496C10.5898 68.7627 11.3203 69.164 11.8444 69.778C12.3686 70.392 12.6502 71.1764 12.6364 71.9836C12.6392 72.6603 12.4595 73.3251 12.1164 73.9083C11.7732 74.4915 11.2793 74.9714 10.6864 75.2976" fill="#FFF4E6"/>
<path d="M81.6204 15.7197C81.6059 13.9193 81.4981 12.1209 81.2974 10.3317C80.4623 11.2785 79.5735 12.1767 78.6354 13.0217C78.4354 11.3347 78.1034 9.76668 77.9154 8.72168C76.5534 10.1337 75.9704 10.7417 74.8284 11.8417C75.0481 13.0785 75.2043 14.3258 75.2964 15.5787C74.1534 16.4317 73.0374 17.1787 71.9834 17.8417C72.1374 19.6717 72.1964 20.6527 72.3084 22.2977C72.5684 22.1487 73.9904 21.1977 75.5834 20.1727C75.6064 21.8457 75.6534 23.4107 75.5894 24.7777C76.8632 24.1092 78.0431 23.2754 79.0984 22.2977C79.2281 20.764 79.2332 19.2222 79.1134 17.6877C80.0263 17.1377 80.8679 16.4774 81.6194 15.7217" fill="#5C1414"/>
<path d="M81.6215 15.5586C80.7924 16.3278 79.8995 17.0253 78.9525 17.6436C79.0577 19.139 79.0433 20.6404 78.9095 22.1336C77.9871 23.0486 76.9384 23.8268 75.7955 24.4446C75.8275 23.0906 75.8035 21.4756 75.7315 19.8196C74.1215 20.8776 72.7555 21.7396 72.5055 21.8876C72.4055 20.3156 72.3705 19.7526 72.2245 18.0056C73.2295 17.3656 74.3445 16.5886 75.4675 15.7446C75.3375 14.2836 75.1765 12.9446 74.9915 11.9236C76.0405 10.8526 76.5865 10.3426 77.8355 8.96757C78.0425 10.0176 78.3065 11.5496 78.5355 13.2676C79.5192 12.4234 80.4522 11.5218 81.3295 10.5676C80.9974 7.36327 80.3366 4.20163 79.3575 1.13257L79.1805 0.632568L78.9225 1.09157C78.9225 1.09157 78.8395 1.23857 78.6775 1.50757C77.6015 3.29857 73.0745 10.4586 66.9905 14.9446C68.8473 17.5997 70.1471 20.6034 70.8115 23.7745C71.476 26.9456 71.4912 30.2184 70.8565 33.3956C71.7071 32.9536 72.6008 32.4802 73.5375 31.9756C75.163 31.1569 76.6896 30.1551 78.0875 28.9896C79.4999 27.5572 80.4651 25.7449 80.8655 23.7736V23.7676V23.7586C81.3771 21.1525 81.6296 18.5023 81.6195 15.8466C81.6195 15.7466 81.6195 15.6466 81.6195 15.5546M25.7605 39.2886C17.3985 43.8556 19.4805 49.1886 25.6995 52.1496C33.0345 55.6496 47.6915 57.3716 54.7505 54.6196C41.7505 55.3196 30.1375 50.7586 25.7605 39.2886Z" fill="#FEE4C8" fill-opacity="0.5"/>
</g>
<defs>
<clipPath id="clip0_3117_46">
<rect width="94.035" height="75.739" fill="white" transform="translate(0.482422 0.630615)"/>
</clipPath>
</defs>
</svg>
