<svg width="95" height="77" viewBox="0 0 95 77" fill="none" xmlns="http://www.w3.org/2000/svg">
<g clip-path="url(#clip0_3117_380)">
<path d="M24.8645 28.6875C24.8641 24.2482 26.1801 19.9086 28.6461 16.2173C31.1121 12.526 34.6174 9.64883 38.7186 7.94968C42.8197 6.25054 47.3327 5.80571 51.6867 6.67145C56.0407 7.53718 60.0402 9.67461 63.1795 12.8134C66.3187 15.9522 68.4566 19.9514 69.323 24.3053C70.1893 28.6592 69.7451 33.1722 68.0465 37.2737C66.3479 41.3751 63.4712 44.8807 59.7802 47.3472C56.0892 49.8137 51.7497 51.1303 47.3105 51.1305C44.363 51.1308 41.4444 50.5504 38.7212 49.4227C35.998 48.295 33.5236 46.6419 31.4393 44.5579C29.3549 42.4738 27.7015 39.9996 26.5734 37.2766C25.4453 34.5535 24.8646 31.635 24.8645 28.6875Z" fill="#A61928"/>
<path d="M47.6364 9.02454C47.6364 9.02454 28.7364 20.4185 41.1974 39.8245C41.1974 39.8245 33.9914 36.1935 32.4044 25.6075C32.3564 25.1695 31.8394 24.6485 31.4654 25.7125C27.7224 36.4075 33.3104 49.8365 48.5744 49.1885C63.9624 48.5345 67.4544 30.8635 59.5294 19.9495C59.2424 19.5025 58.8294 19.3865 59.0664 20.2495C60.6054 25.8285 58.0424 32.3735 57.1274 33.8545C61.7274 18.7415 48.6524 9.15454 47.6364 9.02654" fill="#FEE4C8"/>
<path d="M87.2314 76.0585V62.3025H94.4404V63.3355H88.4014V68.4205H94.0314V69.4525H88.4014V75.0255H94.5174V76.0585H87.2314ZM80.0914 76.2935C79.2491 76.3589 78.4076 76.1568 77.6869 75.716C76.9661 75.2752 76.4029 74.6182 76.0774 73.8385C75.8713 73.2557 75.7599 72.6436 75.7474 72.0255H76.9164C76.8924 72.4556 76.9598 72.8859 77.1141 73.2881C77.2684 73.6903 77.5062 74.0553 77.8117 74.359C78.1172 74.6627 78.4835 74.8983 78.8866 75.0502C79.2897 75.2022 79.7205 75.267 80.1504 75.2405C80.5323 75.2742 80.917 75.2301 81.2813 75.1107C81.6456 74.9913 81.9818 74.7992 82.2696 74.546C82.5574 74.2928 82.7908 73.9837 82.9556 73.6376C83.1204 73.2915 83.2132 72.9155 83.2284 72.5325C83.2289 72.1282 83.1295 71.73 82.9392 71.3733C82.7489 71.0165 82.4735 70.7123 82.1374 70.4875C81.1224 69.8315 80.0456 69.2766 78.9224 68.8305C78.4436 68.6307 77.9866 68.3824 77.5584 68.0895C77.1327 67.8015 76.7852 67.4123 76.5473 66.9566C76.3093 66.501 76.1884 65.9934 76.1954 65.4795C76.1954 63.2585 78.1434 62.0695 80.1684 62.0695C80.992 62.007 81.8122 62.228 82.4928 62.6959C83.1735 63.1637 83.6737 63.8502 83.9104 64.6415C83.994 64.9862 84.0396 65.3389 84.0464 65.6935H82.8964C82.8717 65.2742 82.7661 64.8637 82.5854 64.4845C82.337 64.0441 81.9695 63.6826 81.525 63.4415C81.0805 63.2005 80.5771 63.0895 80.0724 63.1215C79.7451 63.0923 79.4153 63.129 79.1024 63.2296C78.7896 63.3302 78.5001 63.4925 78.2511 63.707C78.0022 63.9214 77.7988 64.1837 77.653 64.4782C77.5072 64.7727 77.422 65.0935 77.4024 65.4215C77.4024 68.4985 84.4564 67.8565 84.4564 72.4535C84.4564 74.9475 82.4104 76.2935 80.0914 76.2935ZM69.3154 76.2925C68.4732 76.3579 67.6319 76.1557 66.9113 75.7149C66.1908 75.2741 65.6277 74.6171 65.3024 73.8375C65.0947 73.255 64.9826 72.6428 64.9704 72.0245H66.1394C66.1158 72.4546 66.1834 72.8849 66.3379 73.287C66.4923 73.6891 66.7302 74.054 67.0357 74.3577C67.3413 74.6613 67.7076 74.8969 68.1107 75.0489C68.5138 75.2009 68.9445 75.2658 69.3744 75.2395C69.7564 75.2734 70.1412 75.2293 70.5056 75.11C70.87 74.9907 71.2064 74.7986 71.4943 74.5454C71.7822 74.2921 72.0157 73.9831 72.1806 73.6369C72.3454 73.2907 72.4383 72.9146 72.4534 72.5315C72.4539 72.1272 72.3545 71.729 72.1642 71.3723C71.9739 71.0155 71.6985 70.7113 71.3624 70.4865C70.3471 69.8311 69.2703 69.2762 68.1474 68.8295C67.6685 68.6299 67.2115 68.3816 66.7834 68.0885C66.3569 67.8012 66.0088 67.4121 65.7706 66.9564C65.5324 66.5006 65.4117 65.9927 65.4194 65.4785C65.4194 63.2575 67.3684 62.0685 69.3934 62.0685C70.217 62.0059 71.0372 62.227 71.7178 62.6951C72.3983 63.1632 72.8982 63.85 73.1344 64.6415C73.218 64.9862 73.2636 65.3389 73.2704 65.6935H72.1204C72.0962 65.2741 71.9905 64.8635 71.8094 64.4845C71.5613 64.044 71.194 63.6824 70.7497 63.4413C70.3053 63.2002 69.8019 63.0894 69.2974 63.1215C68.9701 63.0923 68.6403 63.129 68.3274 63.2296C68.0146 63.3302 67.7251 63.4925 67.4761 63.707C67.2272 63.9214 67.0238 64.1837 66.878 64.4782C66.7322 64.7727 66.647 65.0935 66.6274 65.4215C66.6274 68.4985 73.6794 67.8565 73.6794 72.4535C73.6794 74.9475 71.6344 76.2925 69.3154 76.2925ZM60.6444 62.3025H61.8524V76.0585H60.6444V62.3025ZM56.9804 72.9405C56.5904 75.2985 54.6044 76.2925 52.3804 76.2925C50.4904 76.2925 48.5424 75.5325 47.9184 73.5835C47.7491 72.9886 47.6769 72.3704 47.7044 71.7525V62.3035H48.8734C48.8734 65.3805 48.8534 68.4395 48.8534 71.5195C48.8127 72.3065 48.9734 73.0909 49.3204 73.7985C49.656 74.2894 50.1165 74.6818 50.6545 74.9351C51.1924 75.1885 51.7883 75.2935 52.3804 75.2395C53.0966 75.2357 53.8027 75.0696 54.4454 74.7535C56.0634 73.9145 55.8684 72.1625 55.8684 70.6225V62.3035H57.0574V71.7135C57.0606 72.1239 57.0342 72.5339 56.9784 72.9405M40.7484 76.2925C39.9062 76.3579 39.0649 76.1557 38.3443 75.7149C37.6238 75.2741 37.0607 74.6171 36.7354 73.8375C36.5277 73.255 36.4156 72.6428 36.4034 72.0245H37.5724C37.5487 72.4549 37.6164 72.8854 37.7711 73.2878C37.9257 73.6901 38.1638 74.0552 38.4697 74.3589C38.7756 74.6626 39.1423 74.8981 39.5458 75.0499C39.9492 75.2016 40.3802 75.2663 40.8104 75.2395C41.1924 75.2734 41.5772 75.2293 41.9416 75.11C42.306 74.9907 42.6424 74.7986 42.9303 74.5454C43.2182 74.2921 43.4517 73.9831 43.6166 73.6369C43.7814 73.2907 43.8743 72.9146 43.8894 72.5315C43.8899 72.1272 43.7905 71.729 43.6002 71.3723C43.4099 71.0155 43.1345 70.7113 42.7984 70.4865C41.7832 69.8309 40.7064 69.276 39.5834 68.8295C39.1044 68.6303 38.6472 68.382 38.2194 68.0885C37.7929 67.8012 37.4448 67.4121 37.2066 66.9564C36.9684 66.5006 36.8477 65.9927 36.8554 65.4785C36.8554 63.2575 38.8034 62.0685 40.8294 62.0685C41.653 62.0059 42.4732 62.227 43.1538 62.6951C43.8343 63.1632 44.3342 63.85 44.5704 64.6415C44.655 64.986 44.7006 65.3388 44.7064 65.6935H43.5554C43.5295 65.2742 43.4233 64.8637 43.2424 64.4845C42.9943 64.044 42.627 63.6824 42.1827 63.4413C41.7383 63.2002 41.235 63.0894 40.7304 63.1215C40.4031 63.0923 40.0733 63.129 39.7604 63.2296C39.4476 63.3302 39.1581 63.4925 38.9091 63.707C38.6602 63.9214 38.4568 64.1837 38.311 64.4782C38.1652 64.7727 38.08 65.0935 38.0604 65.4215C38.0604 68.4985 45.1104 67.8585 45.1104 72.4585C45.1104 74.9525 43.0644 76.2975 40.7454 76.2975M27.7564 64.8105C25.3394 64.8105 24.5984 67.1695 24.5984 69.1765C24.5984 71.2435 25.3194 73.5435 27.7984 73.5435C30.1984 73.5435 30.9564 71.2615 30.9564 69.2355C30.9564 67.1495 30.2734 64.8105 27.7564 64.8105ZM27.7754 76.3695C23.4874 76.3695 20.8174 73.3865 20.8174 69.1765C20.8174 64.9285 23.4674 61.9845 27.7954 61.9845C32.0824 61.9845 34.7534 64.9845 34.7534 69.1765C34.7534 73.3865 32.0634 76.3695 27.7754 76.3695ZM14.8934 62.2975H18.5394V76.0585H14.8934V62.2975ZM6.59342 70.2095H4.05042V73.3675H6.73042C7.86142 73.3675 8.91342 73.1735 8.91342 71.8085C8.91342 70.3465 7.76342 70.2095 6.59342 70.2095ZM6.41742 64.9665H4.05042V67.6585H6.16642C7.17842 67.6585 8.25142 67.5585 8.25142 66.2745C8.25142 65.1445 7.35142 64.9695 6.41742 64.9695M10.6864 75.2995C9.25541 75.9127 7.6981 76.1733 6.14542 76.0595H0.482422V62.2975H6.12642C7.86142 62.2975 10.0264 62.3365 11.1924 63.8565C11.6277 64.4408 11.8547 65.1541 11.8374 65.8825C11.8607 66.5075 11.6707 67.1219 11.2987 67.6247C10.9268 68.1275 10.3949 68.4889 9.79042 68.6495C10.5898 68.7625 11.3203 69.1638 11.8444 69.7779C12.3686 70.3919 12.6502 71.1763 12.6364 71.9835C12.6392 72.6601 12.4595 73.325 12.1164 73.9082C11.7732 74.4914 11.2793 74.9713 10.6864 75.2975" fill="#A61928"/>
<path d="M81.6204 15.7194C81.6059 13.9191 81.4981 12.1206 81.2974 10.3314C80.4623 11.2783 79.5735 12.1764 78.6354 13.0214C78.4354 11.3344 78.1034 9.76644 77.9154 8.72144C76.5534 10.1334 75.9704 10.7414 74.8284 11.8414C75.0481 13.0783 75.2043 14.3256 75.2964 15.5784C74.1534 16.4314 73.0374 17.1784 71.9834 17.8414C72.1374 19.6714 72.1964 20.6524 72.3084 22.2974C72.5684 22.1484 73.9904 21.1974 75.5834 20.1724C75.6064 21.8454 75.6534 23.4104 75.5894 24.7774C76.8632 24.109 78.0431 23.2751 79.0984 22.2974C79.2281 20.7637 79.2332 19.222 79.1134 17.6874C80.0263 17.1374 80.8679 16.4771 81.6194 15.7214" fill="#FEE4C8"/>
<path d="M81.6215 15.5584C80.7924 16.3277 79.8995 17.0252 78.9525 17.6434C79.0577 19.1389 79.0433 20.6403 78.9095 22.1334C77.9871 23.0485 76.9384 23.8267 75.7955 24.4444C75.8275 23.0904 75.8035 21.4754 75.7315 19.8194C74.1215 20.8774 72.7555 21.7394 72.5055 21.8874C72.4055 20.3154 72.3705 19.7524 72.2245 18.0054C73.2295 17.3654 74.3445 16.5884 75.4675 15.7444C75.3375 14.2834 75.1765 12.9444 74.9915 11.9234C76.0405 10.8524 76.5865 10.3424 77.8355 8.96745C78.0425 10.0174 78.3065 11.5494 78.5355 13.2674C79.5192 12.4233 80.4522 11.5217 81.3295 10.5674C80.9974 7.36315 80.3366 4.20151 79.3575 1.13245L79.1805 0.632446L78.9225 1.09145C78.9225 1.09145 78.8395 1.23845 78.6775 1.50745C77.6015 3.29845 73.0745 10.4584 66.9905 14.9444C68.8473 17.5996 70.1471 20.6032 70.8115 23.7743C71.476 26.9454 71.4912 30.2183 70.8565 33.3954C71.7071 32.9534 72.6008 32.4801 73.5375 31.9754C75.163 31.1568 76.6896 30.155 78.0875 28.9894C79.4999 27.5571 80.4651 25.7448 80.8655 23.7734V23.7674V23.7584C81.3771 21.1524 81.6296 18.5022 81.6195 15.8464C81.6195 15.7464 81.6195 15.6464 81.6195 15.5544M25.7605 39.2884C17.3985 43.8554 19.4805 49.1884 25.6995 52.1494C33.0345 55.6494 47.6915 57.3714 54.7505 54.6194C41.7505 55.3195 30.1375 50.7584 25.7605 39.2884Z" fill="#91172C" fill-opacity="0.45"/>
</g>
<defs>
<clipPath id="clip0_3117_380">
<rect width="94.035" height="75.739" fill="white" transform="translate(0.482422 0.630493)"/>
</clipPath>
</defs>
</svg>
