<svg width="98" height="138" viewBox="0 0 98 138" fill="none" xmlns="http://www.w3.org/2000/svg">
<g id="Calque_3" clip-path="url(#clip0_3172_220)">
<g id="Group">
<path id="Vector" d="M32.3111 103.384C30.6465 103.541 26.4327 104.141 22.9837 107.212C18.545 111.16 18.2225 116.636 18.47 116.748C18.5824 116.8 18.8149 115.819 19.9021 115.392C20.8243 115.033 21.5441 115.392 22.6163 115.31C23.3961 115.25 24.4533 114.958 25.563 113.871C24.8432 114.928 22.3539 118.898 23.726 124.314C25.1056 129.76 29.8592 134.584 36.06 136.959C36.165 134.726 36.7498 133.019 37.4546 131.708C38.5343 129.715 39.629 129.168 40.2138 127.393C40.7911 125.64 40.5212 123.752 39.8614 121.954C41.6009 126.943 44.7125 129.333 45.8972 130.149C49.4587 132.592 54.1224 133.475 55.4195 133.693C57.3764 134.022 58.6511 133.992 60.758 134.794C62.9099 135.61 64.5219 136.764 65.5716 137.64C64.7768 136.457 63.7122 134.622 63.1123 132.314C62.6175 130.404 62.7674 129.475 62.5125 127.138C62.2951 125.175 61.9651 122.239 60.9154 120.029C60.3231 118.771 58.3962 115.43 51.993 112.673C55.3595 113.864 57.7288 113.804 59.3034 113.504C61.3878 113.107 62.415 112.216 65.2642 111.796C67.0337 111.534 68.5783 111.594 69.628 111.692C69.4105 110.785 67.8435 104.627 61.3278 100.695C53.4401 95.9304 45.6198 98.8444 45.1399 99.0317C46.5795 98.4698 47.1343 97.7357 47.3668 97.1439C47.7642 96.1476 47.3143 95.3835 47.8242 94.4247C48.2515 93.6231 49.0688 93.2186 49.7061 92.9939C48.1391 92.8441 43.168 92.5444 38.5718 95.3386C34.0731 98.0653 32.7009 102.058 32.3185 103.384H32.3111Z" fill="#91172C" stroke="#5C1414" stroke-linecap="round" stroke-linejoin="round"/>
<path id="Vector_2" d="M25.548 105.294C25.473 104.215 25.1206 101.466 23.0212 98.8368C20.322 95.4658 16.4756 94.477 16.3856 94.6193C16.3481 94.6793 17.0379 94.9714 17.3153 95.7205C17.5553 96.3573 17.2928 96.7618 17.3228 97.4509C17.3453 97.9528 17.5403 98.6645 18.2826 99.5185C17.5553 98.9117 14.8035 96.7693 10.9721 96.8592C7.11072 96.9565 3.63171 99.2788 1.85471 102.859C3.42177 103.249 4.61393 103.856 5.52117 104.493C6.90828 105.459 7.26818 106.23 8.51282 106.86C9.73498 107.474 11.0696 107.579 12.3517 107.414C8.81274 107.804 7.07323 109.429 6.4809 110.066C4.6964 111.969 3.9916 114.8 3.81915 115.587C3.55673 116.778 3.54923 117.587 2.9494 118.808C2.33457 120.051 1.49481 120.905 0.86499 121.445C1.71225 121.108 3.01688 120.703 4.65892 120.651C6.00853 120.606 6.66085 120.838 8.31038 121.01C9.69749 121.153 11.7669 121.362 13.3415 121.01C14.2337 120.816 16.6255 120.066 18.6799 116.411C17.7802 118.373 17.7802 119.879 17.9676 120.92C18.2151 122.299 18.8224 123.078 19.0623 124.943C19.2123 126.104 19.1448 127.071 19.0623 127.722C19.7071 127.722 24.0634 127.602 26.9501 124.037C30.4441 119.722 28.5321 114.351 28.4122 114.029C28.7796 115.025 29.2894 115.474 29.7018 115.707C30.3991 116.104 30.9465 115.924 31.6063 116.381C32.1611 116.763 32.4385 117.34 32.581 117.774C32.716 116.8 33.0084 113.699 31.1264 110.388C29.2894 107.152 26.5002 105.714 25.5705 105.279L25.548 105.294Z" fill="#91172C" stroke="#5C1414" stroke-linecap="round" stroke-linejoin="round"/>
<path id="Vector_3" d="M53.2302 41.9948C52.5179 42.0323 50.7034 42.2195 49.0538 43.5305C46.9319 45.2085 46.4446 47.658 46.5496 47.7105C46.5945 47.7329 46.752 47.2985 47.2394 47.1336C47.6517 46.9913 47.9367 47.1636 48.3865 47.1486C48.7239 47.1411 49.1813 47.0288 49.7212 46.5643C49.3463 47.0213 48.0491 48.7517 48.2816 51.2013C48.5215 53.6658 50.216 55.9206 52.6828 57.0967C52.8703 56.1004 53.2227 55.3438 53.6051 54.7745C54.1899 53.9056 54.6847 53.6808 55.0446 52.8943C55.397 52.1227 55.4045 51.2687 55.2396 50.4522C55.6595 52.7145 56.8141 53.8456 57.2715 54.2352C58.6211 55.3963 60.5331 55.8832 61.0654 56.0105C61.8677 56.1978 62.4076 56.2053 63.2473 56.6023C64.1021 57.0143 64.7094 57.5537 65.0993 57.9657C64.8369 57.4188 64.507 56.5799 64.402 55.5311C64.312 54.6696 64.4395 54.2576 64.477 53.2014C64.507 52.3174 64.5595 50.999 64.252 49.9877C64.0796 49.4109 63.4798 47.8828 60.953 46.5194C62.2951 47.1187 63.2998 47.1411 63.9821 47.0363C64.8894 46.9014 65.3767 46.5194 66.6064 46.392C67.3712 46.3096 68.016 46.3696 68.4508 46.4295C68.4209 46.0175 68.1434 43.2308 65.6466 41.3506C62.6175 39.0658 59.1385 40.2194 58.9211 40.2943C59.5659 40.0696 59.8433 39.755 59.9782 39.4928C60.2107 39.0508 60.0682 38.7062 60.3381 38.2867C60.5706 37.9346 60.938 37.7698 61.2229 37.68C60.5706 37.5826 58.4937 37.3503 56.3793 38.5115C54.3099 39.6426 53.4776 41.403 53.2302 41.9948Z" fill="#91172C" stroke="#5C1414" stroke-linecap="round" stroke-linejoin="round"/>
</g>
<path id="Vector_4" d="M54.0399 111.324C56.1917 111.527 59.7233 111.804 61.5227 109.721C62.8799 108.148 62.8574 105.676 63.5772 105.699C63.5772 105.699 63.8471 105.699 65.0542 108.081H65.0617C65.0692 108.081 66.6963 106.373 66.5163 103.976C66.3889 102.245 65.3841 101.069 64.1695 99.6383C62.9473 98.2001 61.6952 97.2637 60.8254 96.6944C63.2847 97.3835 65.7365 98.0727 68.1958 98.7694C67.8434 97.6757 67.1836 96.1625 65.8415 94.904C63.4647 92.6717 61.3953 93.5107 58.876 91.593C56.949 90.1322 55.0446 87.2706 55.412 84.042C55.6969 81.54 57.3389 78.8357 59.7757 77.9817C61.0504 77.5323 61.8826 77.8169 67.3636 79.3151C73.3169 80.9407 74.3216 81.143 75.6862 80.8208C78.9403 80.0568 80.7923 77.1203 81.0997 76.6109C84.0164 71.8016 82.4643 64.1233 78.183 60.6025C77.2683 59.8534 76.8934 59.8309 63.3522 56.2352C61.9276 55.8532 59.9332 55.3138 57.5264 54.1078C55.3745 53.0216 54.7297 52.3324 52.9452 51.3586C51.3481 50.4971 48.9488 49.4708 45.5973 48.9614C44.5176 47.3509 41.5859 43.433 36.1424 41.1633C31.6137 39.2755 27.5724 39.4628 25.6304 39.6875C17.0229 40.8861 13.6938 43.5529 12.3067 45.8976C11.7668 46.8115 10.4697 49.4633 7.86795 52.8493C6.72077 54.3325 6.46585 54.4823 5.79853 55.3663C2.53696 59.6512 2.10208 64.6926 1.95212 66.4605C1.47976 72.0114 3.06931 76.3037 3.87908 78.1465C4.59887 79.8021 7.3206 85.7874 13.9412 89.3831C17.8176 91.4881 21.3641 91.8701 23.1186 92.0424C27.3399 92.4544 30.7815 91.7578 32.8884 91.1585C32.8209 96.979 32.7534 102.8 32.6934 108.62C36.1874 109.167 44.9299 110.493 54.0549 111.339L54.0399 111.324Z" fill="#A61928"/>
<path id="Vector_5" d="M31.3813 66.2582C31.5463 66.438 31.4938 66.7152 31.4713 66.9175C31.2839 68.3333 31.7787 68.6479 32.3486 71.5544C32.8959 74.3411 33.1658 75.7344 32.521 76.4161C31.8312 77.1502 30.5791 77.0154 29.7018 76.9255C29.1245 76.8656 27.28 76.6633 26.0503 75.0527C24.9032 73.562 25.0756 71.884 25.1281 71.4495C25.3155 69.8315 26.2228 68.7977 26.6502 68.3258C28.2322 66.5729 30.8265 65.629 31.3813 66.2582Z" fill="#91172C"/>
<path id="Vector_6" d="M46.8794 49.6806C46.377 48.9989 45.6572 48.085 44.705 47.0887C43.5878 45.9276 40.1913 42.4667 34.7478 40.6464C32.9633 40.0471 26.8301 38.0995 20.0145 40.6464C12.884 43.3132 8.92516 49.4859 9.30005 49.9278C9.52499 50.1975 11.3545 48.4371 15.4108 46.7516C18.9348 45.2834 21.904 44.8114 23.0287 44.6616C25.7129 44.2946 29.7992 43.7327 34.3879 45.4931C36.3974 46.2647 37.9119 47.2535 38.9167 48.0026C41.5709 48.5645 44.2252 49.1188 46.8869 49.6806H46.8794Z" fill="#91172C"/>
<path id="Vector_7" d="M52.4353 66.925C51.0482 66.7078 49.3837 67.5617 49.2112 68.8277C49.0238 70.1836 50.6358 71.6144 52.2104 71.532C53.44 71.4721 54.8271 70.4758 54.8046 69.1723C54.7821 67.9363 53.5 67.0898 52.4428 66.925H52.4353Z" fill="#91172C"/>
<g id="Group_2">
<path id="Vector_8" d="M39.8013 48.8941C45.9046 48.4296 49.601 49.6507 51.8804 50.9242C52.9376 51.516 55.4044 52.8569 59.0784 54.5348C59.9256 54.9244 60.9228 55.2989 62.19 55.6585C65.5715 56.6248 67.281 56.5574 71.6448 57.9058C74.479 58.7823 76.7358 59.7261 78.2129 60.4003C79.645 62.0259 82.3368 65.5916 82.6292 70.4159C82.6967 71.4946 82.7566 73.1201 82.0368 74.9929C81.0996 77.4275 79.1277 79.2028 77.4781 80.0418C71.2024 83.233 64.7093 75.3674 58.9059 78.5661C57.0689 79.5774 55.8543 81.3977 55.4644 83.1057C54.6996 86.4467 56.8665 90.4619 59.8206 92.3272C62.4824 94.0052 64.8967 93.3759 66.7262 95.7281C67.5135 96.7469 67.8209 97.8331 67.9558 98.5372C62.5274 96.5821 61.1103 96.4922 60.9378 96.8517C60.5329 97.6683 66.7112 100.388 66.7487 104.448C66.7637 106.021 65.8489 107.309 65.1291 108.118C64.3119 106.208 63.742 105.676 63.3371 105.729C62.5199 105.834 62.7748 108.268 61.3727 109.909C59.9031 111.632 57.2714 111.706 55.1045 111.639C46.9468 111.399 35.1826 108.897 32.7683 108.373C32.7683 102.672 32.7683 96.9716 32.7683 91.2709" stroke="#5C1414" stroke-linecap="round" stroke-linejoin="round"/>
<path id="Vector_9" d="M40.1462 61.1419C40.7686 59.8684 42.2681 56.3476 41.1884 52.2126C41.001 51.5009 40.5961 50.0102 39.4714 48.5494C37.0871 45.4407 33.2332 44.7964 30.7664 44.4144C20.1869 42.7963 12.1192 48.6019 12.1192 48.6019C11.152 49.2986 2.5594 55.7034 1.94457 67.1497C1.4797 75.8318 5.73849 84.9859 13.8737 89.5779C22.0539 94.1999 30.264 92.0125 31.4787 91.6679C33.7056 91.0387 42.9579 88.0422 45.4922 80.1841C48.1165 72.0414 42.733 61.1194 31.4187 55.7708C33.5106 58.5275 34.8527 61.0295 35.685 62.8274C37.1921 66.056 38.0843 68.0037 37.7244 70.5581C37.597 71.4496 37.2446 74.0115 35.1677 75.5921C32.176 77.8619 26.5376 77.3076 25.1055 74.1463C23.9358 71.5619 25.8028 67.749 28.1946 66.6853C29.4843 66.1085 30.384 66.528 33.1957 65.8238C34.6428 65.4642 35.79 64.9998 36.5098 64.6777" stroke="#5C1414" stroke-linecap="round" stroke-linejoin="round"/>
<path id="Vector_10" d="M32.4909 76.4686C32.5059 76.0342 32.5208 75.375 32.4759 74.5734C32.3859 72.8879 32.1085 71.8017 31.9135 70.708C31.7261 69.6668 31.5311 68.1461 31.5311 66.2284" stroke="#5C1414" stroke-linecap="round" stroke-linejoin="round"/>
<path id="Vector_11" d="M45.9272 48.8266C44.4276 46.9689 41.9533 44.3845 38.1969 42.2945C38.0994 42.242 37.3946 41.8525 36.6523 41.5079C35.9325 41.1708 29.3794 38.2118 22.6088 39.6127C12.8915 41.6203 8.3778 51.4335 7.98792 52.31" stroke="#5C1414" stroke-linecap="round" stroke-linejoin="round"/>
<path id="Vector_12" d="M74.0366 63.0371C76.1135 63.2394 78.1904 63.4341 80.2674 63.6364" stroke="#5C1414" stroke-linecap="round" stroke-linejoin="round"/>
<path id="Vector_13" d="M49.9535 67.352C48.8663 68.5206 49.1737 70.5357 50.4784 71.4721C51.603 72.2886 53.3426 72.1988 54.2648 71.12C55.322 69.8915 54.8796 67.8914 53.56 67.0224C52.4878 66.3108 50.8683 66.3707 49.9535 67.352Z" stroke="#5C1414" stroke-linecap="round" stroke-linejoin="round"/>
</g>
<g id="Group_3">
<path id="Vector_14" d="M26.2603 104.777C27.9698 102.702 33.5257 96.4322 39.9139 96.9341C40.9561 97.0165 43.1005 97.1813 44.0002 98.7169C44.9824 100.395 44.3151 103.474 42.2457 104.2C40.4462 104.83 38.2718 103.444 37.7245 101.871C36.9522 99.6608 39.2541 96.7318 41.3535 95.286C46.2646 91.9001 51.0407 95.5183 64.4319 96.1101C69.5905 96.3348 78.7829 96.6569 80.7548 92.5743C80.8598 92.357 81.692 90.5742 80.8898 89.0835C80.1325 87.6826 78.153 86.926 76.4435 87.4579C74.9215 87.9373 73.5868 89.4505 73.7593 90.9038C73.9467 92.4844 75.8587 93.3608 76.631 93.7129C81.662 96.0202 91.6117 93.8852 95.4281 86.5964C97.4151 82.806 98.0899 76.948 94.9408 73.0227C94.6334 72.6406 91.1843 68.4681 86.8731 69.4494C84.6612 69.9513 83.2966 71.5619 82.7492 72.296" stroke="#5C1414" stroke-linecap="round" stroke-linejoin="round"/>
<path id="Vector_15" d="M73.5493 80.9033C72.4921 81.8097 66.8163 86.4842 59.9332 85.1133C58.2762 84.7837 56.8816 84.1694 55.7494 83.5102" stroke="#5C1414" stroke-linecap="round" stroke-linejoin="round"/>
<path id="Vector_16" d="M32.536 103.354C31.5688 103.077 30.8865 102.305 30.8115 101.429C30.744 100.642 31.1789 100.058 31.3064 99.9081L32.8284 98.9492" stroke="#5C1414" stroke-linecap="round" stroke-linejoin="round"/>
<path id="Vector_17" d="M42.3057 44.759C42.838 44.0324 43.9552 42.7214 45.8222 41.8899C49.1362 40.4067 52.2478 41.5378 52.9152 41.8" stroke="#5C1414" stroke-linecap="round" stroke-linejoin="round"/>
</g>
</g>
<defs>
<clipPath id="clip0_3172_220">
<rect width="97" height="138" fill="white" transform="translate(0.482544)"/>
</clipPath>
</defs>
</svg>
