<svg width="25" height="25" viewBox="0 0 25 25" fill="none" xmlns="http://www.w3.org/2000/svg">
<g id="cross mark 1" clip-path="url(#clip0_3199_364)">
<path id="Vector" d="M0.94239 24.0754C0.314127 23.459 0 22.7181 0 21.8528C0 20.9874 0.314127 20.2406 0.94239 19.6124L8.05476 12.5L0.94239 5.36984C0.314127 4.75343 0 4.01257 0 3.14723C0 2.28188 0.314127 1.54102 0.94239 0.924609C1.57065 0.3082 2.31448 0 3.1739 0C4.03331 0 4.77122 0.3082 5.38762 0.924609L12.5178 8.05476L19.6302 0.924609C20.2466 0.3082 20.9874 0 21.8528 0C22.7181 0 23.459 0.3082 24.0754 0.924609C24.6918 1.54102 25 2.28188 25 3.14723C25 4.01257 24.6918 4.75343 24.0754 5.36984L16.963 12.5L24.0754 19.6124C24.6918 20.2406 25 20.9874 25 21.8528C25 22.7181 24.6918 23.459 24.0754 24.0754C23.4708 24.6918 22.73 25 21.8528 25C20.9756 25 20.2347 24.6918 19.6302 24.0754L12.5178 16.963L5.38762 24.0754C4.78307 24.6918 4.0422 25 3.16501 25C2.28781 25 1.54695 24.6918 0.94239 24.0754Z" fill="#A61928"/>
</g>
<defs>
<clipPath id="clip0_3199_364">
<rect width="25" height="25" fill="white"/>
</clipPath>
</defs>
</svg>
