<svg width="34" height="34" viewBox="0 0 34 34" fill="none" xmlns="http://www.w3.org/2000/svg">
<g id="facebook square 1" clip-path="url(#clip0_3199_175)">
<path id="Vector" d="M32.0964 0H1.90365C1.37239 0 0.922311 0.18446 0.553385 0.553385C0.18446 0.922311 0 1.37239 0 1.90365V32.0964C0 32.6276 0.18446 33.0777 0.553385 33.4466C0.922311 33.8155 1.37239 34 1.90365 34H18.151V20.8516H13.724V15.7161H18.151V11.9089C18.151 9.72482 18.7634 8.04992 19.9883 6.88411C21.2131 5.71831 22.8142 5.13542 24.7917 5.13542C25.441 5.13542 26.0977 5.15017 26.7617 5.17969C27.4258 5.2092 28.0825 5.26823 28.7318 5.35677V9.91667H26.0312C24.9687 9.91667 24.2752 10.1454 23.9505 10.6029C23.6259 11.0603 23.4635 11.6727 23.4635 12.4401V15.7161H28.5547L27.8906 20.8516H23.4635V34H32.0964C32.6276 34 33.0777 33.8155 33.4466 33.4466C33.8155 33.0777 34 32.6276 34 32.0964V1.90365C34 1.37239 33.8155 0.922311 33.4466 0.553385C33.0777 0.18446 32.6276 0 32.0964 0Z" fill="#FFF4E6"/>
</g>
<defs>
<clipPath id="clip0_3199_175">
<rect width="34" height="34" fill="white"/>
</clipPath>
</defs>
</svg>
