<svg width="24" height="25" viewBox="0 0 24 25" fill="none" xmlns="http://www.w3.org/2000/svg">
<g clip-path="url(#clip0_3117_58)">
<path d="M22.6562 0.5H1.34375C0.968748 0.5 0.651043 0.630207 0.390625 0.890625C0.130207 1.15104 0 1.46875 0 1.84375V23.1562C0 23.5313 0.130207 23.849 0.390625 24.1094C0.651043 24.3698 0.968748 24.5 1.34375 24.5H12.8125V15.2188H9.6875V11.5938H12.8125V8.90625C12.8125 7.36458 13.2448 6.1823 14.1094 5.35938C14.974 4.53645 16.1042 4.125 17.5 4.125C17.9583 4.125 18.4219 4.13542 18.8906 4.15625C19.3594 4.17708 19.8229 4.21875 20.2812 4.28125V7.5H18.375C17.625 7.5 17.1354 7.66146 16.9062 7.98438C16.6771 8.30729 16.5625 8.73958 16.5625 9.28125V11.5938H20.1562L19.6875 15.2188H16.5625V24.5H22.6562C23.0313 24.5 23.349 24.3698 23.6094 24.1094C23.8698 23.849 24 23.5313 24 23.1562V1.84375C24 1.46875 23.8698 1.15104 23.6094 0.890625C23.349 0.630207 23.0313 0.5 22.6562 0.5Z" fill="#FFF4E6"/>
</g>
<defs>
<clipPath id="clip0_3117_58">
<rect width="24" height="24" fill="white" transform="translate(0 0.5)"/>
</clipPath>
</defs>
</svg>
