<svg width="34" height="34" viewBox="0 0 34 34" fill="none" xmlns="http://www.w3.org/2000/svg">
<path id="Vector" d="M17 8.25714C15.7899 8.25714 14.6537 8.47792 13.5911 8.91948C12.5286 9.39048 11.6063 10.016 10.8242 10.7961C10.0421 11.5762 9.41493 12.4961 8.94271 13.5558C8.5 14.6156 8.27865 15.7489 8.27865 16.9558C8.27865 18.1628 8.5 19.2961 8.94271 20.3558C9.41493 21.4156 10.0421 22.3355 10.8242 23.1156C11.6063 23.8957 12.5286 24.5212 13.5911 24.9922C14.6537 25.4338 15.7899 25.6545 17 25.6545C18.2101 25.6545 19.3463 25.4338 20.4089 24.9922C21.4714 24.5212 22.3937 23.8957 23.1758 23.1156C23.9579 22.3355 24.5851 21.4156 25.0573 20.3558C25.5 19.2961 25.7214 18.1628 25.7214 16.9558C25.7214 15.7489 25.5 14.6156 25.0573 13.5558C24.5851 12.4961 23.9579 11.5762 23.1758 10.7961C22.3937 10.016 21.4714 9.39048 20.4089 8.91948C19.3463 8.47792 18.2101 8.25714 17 8.25714ZM17 22.6078C15.4358 22.6078 14.1003 22.0558 12.9935 20.9519C11.8867 19.848 11.3333 18.516 11.3333 16.9558C11.3333 15.3957 11.8867 14.0636 12.9935 12.9597C14.1003 11.8558 15.4358 11.3039 17 11.3039C18.5642 11.3039 19.8997 11.8558 21.0065 12.9597C22.1133 14.0636 22.6667 15.3957 22.6667 16.9558C22.6667 18.516 22.1133 19.848 21.0065 20.9519C19.8997 22.0558 18.5642 22.6078 17 22.6078ZM28.112 7.9039C28.112 8.49264 27.9128 8.97835 27.5143 9.36104C27.1159 9.74372 26.6363 9.93507 26.0755 9.93507C25.5148 9.93507 25.0352 9.74372 24.6367 9.36104C24.2383 8.97835 24.0391 8.49264 24.0391 7.9039C24.0391 7.34459 24.2383 6.8736 24.6367 6.49091C25.0352 6.10822 25.5148 5.91688 26.0755 5.91688C26.6363 5.91688 27.1159 6.10822 27.5143 6.49091C27.9128 6.8736 28.112 7.34459 28.112 7.9039ZM33.1146 5.87273C32.6719 4.72467 32.0226 3.72381 31.1667 2.87013C30.3108 2.01645 29.3221 1.36883 28.2005 0.927273L28.1562 0.883117C27.5365 0.647619 26.8798 0.463636 26.1862 0.331169C25.4926 0.198701 24.7769 0.132468 24.0391 0.132468H23.9948C23.1094 0.0735926 22.2977 0.036797 21.5599 0.0220779C20.822 0.00735884 19.3021 0 17 0C14.6979 0 13.178 0.00735884 12.4401 0.0220779C11.7023 0.036797 10.8906 0.0735926 10.0052 0.132468C9.26736 0.132468 8.54427 0.20606 7.83594 0.353247C7.1276 0.500433 6.44879 0.691774 5.79948 0.927273L5.88802 0.883117C4.73697 1.35411 3.73351 2.01645 2.8776 2.87013C2.0217 3.72381 1.3724 4.69523 0.929688 5.78442L0.885417 5.87273C0.649305 6.46147 0.464844 7.10909 0.332031 7.81558C0.199219 8.52208 0.118055 9.24329 0.0885417 9.97922C0.0590282 10.8918 0.0368928 11.7087 0.0221354 12.4299C0.007378 13.1511 0 14.6597 0 16.9558C0 19.252 0.007378 20.768 0.0221354 21.5039C0.0368928 22.2398 0.0590282 23.0641 0.0885417 23.9766C0.118055 24.6831 0.199219 25.3749 0.332031 26.0519C0.464844 26.729 0.649305 27.4061 0.885417 28.0831C1.35764 29.2312 2.0217 30.232 2.8776 31.0857C3.73351 31.9394 4.70746 32.587 5.79948 33.0286H5.88802C6.4783 33.2935 7.12022 33.4996 7.8138 33.6468C8.50738 33.7939 9.22309 33.8675 9.96094 33.8675H10.0052C10.9201 33.9264 11.7391 33.9632 12.4622 33.9779C13.1853 33.9926 14.6979 34 17 34C19.3021 34 20.822 33.9926 21.5599 33.9779C22.2977 33.9632 23.1241 33.9264 24.0391 33.8675C24.7769 33.8675 25.5 33.7939 26.2083 33.6468C26.9167 33.4996 27.5955 33.3082 28.2448 33.0727L28.1562 33.1169C29.3073 32.6459 30.3108 31.9836 31.1667 31.1299C32.0226 30.2762 32.6719 29.3048 33.1146 28.2156V28.1273C33.3802 27.4797 33.5794 26.81 33.7122 26.1182C33.8451 25.4264 33.9115 24.7273 33.9115 24.0208C33.941 23.1082 33.9631 22.2913 33.9779 21.5701C33.9926 20.8489 34 19.3403 34 17.0442C34 14.7186 34 13.1952 34 12.474C34 11.7528 33.9705 10.9359 33.9115 10.0234C33.9115 9.28744 33.8377 8.55888 33.6901 7.83766C33.5425 7.11645 33.3359 6.43204 33.0703 5.78442L33.1146 5.87273ZM30.8125 23.8C30.8125 24.3887 30.7609 24.9554 30.6576 25.5C30.5543 26.0446 30.3993 26.5671 30.1927 27.0675L30.237 26.9792C29.9418 27.7446 29.5139 28.3996 28.9531 28.9442C28.3924 29.4887 27.7578 29.9082 27.0495 30.2026H27.0052C26.533 30.4087 26.0313 30.5558 25.5 30.6442C24.9687 30.7325 24.4227 30.7913 23.862 30.8208C22.947 30.8502 22.1428 30.8723 21.4492 30.887C20.7556 30.9017 19.2578 30.9091 16.9557 30.9091C14.6536 30.9091 13.1558 30.9017 12.4622 30.887C11.7687 30.8723 10.9644 30.8502 10.0495 30.8208C9.4592 30.7913 8.89844 30.7251 8.36719 30.6221C7.83593 30.519 7.31945 30.3792 6.81771 30.2026H6.86198C6.12413 29.9377 5.47483 29.5255 4.91406 28.9662C4.3533 28.4069 3.92535 27.7593 3.63021 27.0234V26.9792C3.45312 26.5377 3.31293 26.052 3.20964 25.5221C3.10634 24.9922 3.05469 24.4329 3.05469 23.8442C2.99566 22.961 2.96615 22.1662 2.96615 21.4597C2.96615 20.7532 2.96615 19.252 2.96615 16.9558C2.96615 14.6597 2.96615 13.1658 2.96615 12.474C2.96615 11.7822 2.99566 10.9801 3.05469 10.0675C3.05469 9.50822 3.10634 8.95628 3.20964 8.41169C3.31293 7.8671 3.46788 7.34459 3.67448 6.84416L3.63021 6.88831C3.92535 6.15238 4.3533 5.50476 4.91406 4.94545C5.47483 4.38614 6.12413 3.95931 6.86198 3.66494C7.3342 3.48831 7.83593 3.34849 8.36719 3.24545C8.89844 3.14242 9.4592 3.09091 10.0495 3.09091C10.9349 3.06147 11.7318 3.03939 12.4401 3.02468C13.1484 3.00996 14.6536 3.0026 16.9557 3.0026C19.2578 3.0026 20.7556 3.0026 21.4492 3.0026C22.1428 3.0026 22.947 3.03203 23.862 3.09091C24.4227 3.09091 24.9687 3.14242 25.5 3.24545C26.0313 3.34849 26.5477 3.50303 27.0495 3.70909L27.0052 3.66494C27.7431 3.95931 28.3924 4.38614 28.9531 4.94545C29.5139 5.50476 29.9418 6.15238 30.237 6.88831C30.4141 7.35931 30.5543 7.85974 30.6576 8.38961C30.7609 8.91948 30.8125 9.46407 30.8125 10.0234V10.0675C30.842 10.9507 30.8641 11.7455 30.8789 12.4519C30.8937 13.1584 30.901 14.6597 30.901 16.9558C30.901 19.252 30.901 20.7459 30.901 21.4377C30.901 22.1294 30.8863 22.9169 30.8568 23.8H30.8125Z" fill="#FFF4E6"/>
</svg>
