<svg width="24" height="25" viewBox="0 0 24 25" fill="none" xmlns="http://www.w3.org/2000/svg">
<g clip-path="url(#clip0_3117_390)">
<path d="M12 6.3125C11.1458 6.3125 10.3438 6.46875 9.59375 6.78125C8.84375 7.11458 8.19271 7.55729 7.64062 8.10938C7.08854 8.66146 6.64583 9.3125 6.3125 10.0625C6 10.8125 5.84375 11.6146 5.84375 12.4688C5.84375 13.3229 6 14.125 6.3125 14.875C6.64583 15.625 7.08854 16.276 7.64062 16.8281C8.19271 17.3802 8.84375 17.8229 9.59375 18.1562C10.3438 18.4688 11.1458 18.625 12 18.625C12.8542 18.625 13.6562 18.4688 14.4062 18.1562C15.1563 17.8229 15.8073 17.3802 16.3594 16.8281C16.9115 16.276 17.3542 15.625 17.6875 14.875C18 14.125 18.1562 13.3229 18.1562 12.4688C18.1562 11.6146 18 10.8125 17.6875 10.0625C17.3542 9.3125 16.9115 8.66146 16.3594 8.10938C15.8073 7.55729 15.1563 7.11458 14.4062 6.78125C13.6562 6.46875 12.8542 6.3125 12 6.3125ZM12 16.4688C10.8958 16.4688 9.95313 16.0781 9.17188 15.2969C8.39062 14.5156 8 13.5729 8 12.4688C8 11.3646 8.39062 10.4219 9.17188 9.64062C9.95313 8.85937 10.8958 8.46875 12 8.46875C13.1042 8.46875 14.0469 8.85937 14.8281 9.64062C15.6094 10.4219 16 11.3646 16 12.4688C16 13.5729 15.6094 14.5156 14.8281 15.2969C14.0469 16.0781 13.1042 16.4688 12 16.4688ZM19.8438 6.0625C19.8438 6.47917 19.7031 6.82292 19.4219 7.09375C19.1406 7.36458 18.8021 7.5 18.4062 7.5C18.0104 7.5 17.6719 7.36458 17.3906 7.09375C17.1094 6.82292 16.9688 6.47917 16.9688 6.0625C16.9688 5.66667 17.1094 5.33333 17.3906 5.0625C17.6719 4.79167 18.0104 4.65625 18.4062 4.65625C18.8021 4.65625 19.1406 4.79167 19.4219 5.0625C19.7031 5.33333 19.8438 5.66667 19.8438 6.0625ZM23.375 4.625C23.0625 3.8125 22.6042 3.10417 22 2.5C21.3958 1.89583 20.6979 1.4375 19.9062 1.125L19.875 1.09375C19.4375 0.927083 18.974 0.796875 18.4844 0.703125C17.9948 0.609375 17.4896 0.5625 16.9688 0.5625H16.9375C16.3125 0.520833 15.7396 0.494792 15.2188 0.484375C14.6979 0.473958 13.625 0.46875 12 0.46875C10.375 0.46875 9.30209 0.473958 8.78125 0.484375C8.26041 0.494792 7.6875 0.520833 7.0625 0.5625C6.54166 0.5625 6.03125 0.614583 5.53125 0.71875C5.03125 0.822917 4.55209 0.958333 4.09375 1.125L4.15625 1.09375C3.34375 1.42709 2.63542 1.89583 2.03125 2.5C1.42708 3.10417 0.968752 3.79166 0.65625 4.5625L0.625 4.625C0.458333 5.04167 0.328125 5.5 0.234375 6C0.140625 6.5 0.083333 7.01041 0.0625 7.53125C0.041667 8.17709 0.026042 8.75521 0.015625 9.26562C0.005208 9.77604 0 10.8437 0 12.4688C0 14.0938 0.005208 15.1667 0.015625 15.6875C0.026042 16.2083 0.041667 16.7917 0.0625 17.4375C0.083333 17.9375 0.140625 18.4271 0.234375 18.9062C0.328125 19.3854 0.458333 19.8646 0.625 20.3438C0.958335 21.1563 1.42708 21.8646 2.03125 22.4688C2.63542 23.0729 3.32291 23.5312 4.09375 23.8438H4.15625C4.57292 24.0313 5.02604 24.1771 5.51562 24.2812C6.00521 24.3854 6.51041 24.4375 7.03125 24.4375H7.0625C7.70834 24.4792 8.28646 24.5052 8.79688 24.5156C9.30729 24.526 10.375 24.5312 12 24.5312C13.625 24.5312 14.6979 24.526 15.2188 24.5156C15.7396 24.5052 16.3229 24.4792 16.9688 24.4375C17.4896 24.4375 18 24.3854 18.5 24.2812C19 24.1771 19.4792 24.0417 19.9375 23.875L19.875 23.9062C20.6875 23.5729 21.3958 23.1042 22 22.5C22.6042 21.8958 23.0625 21.2083 23.375 20.4375V20.375C23.5625 19.9167 23.7031 19.4427 23.7969 18.9531C23.8906 18.4635 23.9375 17.9688 23.9375 17.4688C23.9583 16.8229 23.974 16.2448 23.9844 15.7344C23.9948 15.224 24 14.1563 24 12.5312C24 10.8854 24 9.80729 24 9.29688C24 8.78646 23.9792 8.20834 23.9375 7.5625C23.9375 7.04166 23.8854 6.52604 23.7812 6.01562C23.6771 5.50521 23.5313 5.02084 23.3438 4.5625L23.375 4.625ZM21.75 17.3125C21.75 17.7292 21.7135 18.1302 21.6406 18.5156C21.5677 18.901 21.4583 19.2708 21.3125 19.625L21.3438 19.5625C21.1354 20.1042 20.8333 20.5677 20.4375 20.9531C20.0417 21.3385 19.5938 21.6354 19.0938 21.8438H19.0625C18.7292 21.9896 18.375 22.0938 18 22.1562C17.625 22.2188 17.2396 22.2604 16.8438 22.2812C16.1979 22.3021 15.6302 22.3177 15.1406 22.3281C14.651 22.3385 13.5938 22.3438 11.9688 22.3438C10.3437 22.3438 9.28646 22.3385 8.79688 22.3281C8.30729 22.3177 7.73959 22.3021 7.09375 22.2812C6.67708 22.2604 6.28125 22.2135 5.90625 22.1406C5.53125 22.0677 5.16667 21.9688 4.8125 21.8438H4.84375C4.32291 21.6562 3.86458 21.3646 3.46875 20.9688C3.07292 20.5729 2.77083 20.1146 2.5625 19.5938V19.5625C2.4375 19.25 2.33854 18.9063 2.26562 18.5312C2.19271 18.1562 2.15625 17.7604 2.15625 17.3438C2.11458 16.7187 2.09375 16.1563 2.09375 15.6562C2.09375 15.1562 2.09375 14.0938 2.09375 12.4688C2.09375 10.8437 2.09375 9.78646 2.09375 9.29688C2.09375 8.80729 2.11458 8.23959 2.15625 7.59375C2.15625 7.19792 2.19271 6.80729 2.26562 6.42188C2.33854 6.03646 2.44792 5.66667 2.59375 5.3125L2.5625 5.34375C2.77083 4.82291 3.07292 4.36458 3.46875 3.96875C3.86458 3.57292 4.32291 3.27083 4.84375 3.0625C5.17708 2.9375 5.53125 2.83854 5.90625 2.76562C6.28125 2.69271 6.67708 2.65625 7.09375 2.65625C7.71875 2.63542 8.28125 2.61979 8.78125 2.60938C9.28125 2.59896 10.3437 2.59375 11.9688 2.59375C13.5938 2.59375 14.651 2.59375 15.1406 2.59375C15.6302 2.59375 16.1979 2.61458 16.8438 2.65625C17.2396 2.65625 17.625 2.69271 18 2.76562C18.375 2.83854 18.7396 2.94792 19.0938 3.09375L19.0625 3.0625C19.5833 3.27083 20.0417 3.57292 20.4375 3.96875C20.8333 4.36458 21.1354 4.82291 21.3438 5.34375C21.4688 5.67708 21.5677 6.03125 21.6406 6.40625C21.7135 6.78125 21.75 7.16667 21.75 7.5625V7.59375C21.7708 8.21875 21.7865 8.78125 21.7969 9.28125C21.8073 9.78125 21.8125 10.8437 21.8125 12.4688C21.8125 14.0938 21.8125 15.151 21.8125 15.6406C21.8125 16.1302 21.8021 16.6875 21.7812 17.3125H21.75Z" fill="#91172C"/>
</g>
<defs>
<clipPath id="clip0_3117_390">
<rect width="24" height="24.0625" fill="white" transform="translate(0 0.46875)"/>
</clipPath>
</defs>
</svg>
