<svg width="98" height="138" viewBox="0 0 98 138" fill="none" xmlns="http://www.w3.org/2000/svg">
<g clip-path="url(#clip0_3117_8)">
<path d="M32.3109 103.384C30.6464 103.541 26.4326 104.14 22.9836 107.212C18.5448 111.159 18.2224 116.635 18.4699 116.748C18.5823 116.8 18.8148 115.819 19.9019 115.392C20.8242 115.032 21.544 115.392 22.6162 115.309C23.396 115.25 24.4532 114.957 25.5628 113.871C24.843 114.927 22.3538 118.898 23.7259 124.314C25.1055 129.76 29.8591 134.584 36.0599 136.959C36.1648 134.726 36.7497 133.018 37.4545 131.707C38.5342 129.715 39.6289 129.168 40.2137 127.393C40.791 125.64 40.5211 123.752 39.8613 121.954C41.6008 126.943 44.7124 129.333 45.8971 130.149C49.4586 132.591 54.1222 133.475 55.4194 133.692C57.3763 134.022 58.651 133.992 60.7579 134.794C62.9098 135.61 64.5218 136.764 65.5715 137.64C64.7767 136.457 63.712 134.621 63.1122 132.314C62.6173 130.404 62.7673 129.475 62.5124 127.138C62.2949 125.175 61.965 122.239 60.9153 120.029C60.323 118.77 58.396 115.429 51.9928 112.673C55.3594 113.864 57.7287 113.804 59.3033 113.504C61.3877 113.107 62.4149 112.216 65.2641 111.796C67.0336 111.534 68.5782 111.594 69.6279 111.691C69.4104 110.785 67.8434 104.627 61.3277 100.694C53.4399 95.9301 45.6197 98.8441 45.1398 99.0314C46.5794 98.4696 47.1342 97.7355 47.3667 97.1437C47.764 96.1474 47.3142 95.3833 47.824 94.4244C48.2514 93.6229 49.0687 93.2184 49.706 92.9936C48.1389 92.8438 43.1679 92.5442 38.5717 95.3383C34.0729 98.0651 32.7008 102.058 32.3184 103.384H32.3109Z" fill="#FEE4C8" stroke="#D79D7C" stroke-linecap="round" stroke-linejoin="round"/>
<path d="M25.5478 105.294C25.4728 104.215 25.1204 101.466 23.021 98.8368C20.3217 95.4658 16.4753 94.477 16.3853 94.6193C16.3479 94.6793 17.0377 94.9714 17.3151 95.7205C17.555 96.3573 17.2926 96.7618 17.3226 97.4509C17.3451 97.9528 17.54 98.6645 18.2823 99.5185C17.555 98.9117 14.8033 96.7693 10.9719 96.8592C7.11048 96.9565 3.63146 99.2788 1.85447 102.859C3.42152 103.249 4.61368 103.856 5.52093 104.493C6.90803 105.459 7.26793 106.23 8.51258 106.86C9.73473 107.474 11.0694 107.579 12.3515 107.414C8.81249 107.804 7.07299 109.429 6.48065 110.066C4.69616 111.969 3.99136 114.8 3.81891 115.587C3.55648 116.778 3.54899 117.587 2.94916 118.808C2.33433 120.051 1.49457 120.905 0.864746 121.445C1.71201 121.108 3.01664 120.703 4.65867 120.651C6.00829 120.606 6.6606 120.838 8.31013 121.01C9.69724 121.153 11.7667 121.362 13.3412 121.01C14.2335 120.816 16.6253 120.066 18.6797 116.411C17.78 118.373 17.78 119.879 17.9674 120.92C18.2148 122.299 18.8222 123.078 19.0621 124.943C19.212 126.104 19.1446 127.071 19.0621 127.722C19.7069 127.722 24.0632 127.602 26.9499 124.037C30.4439 119.722 28.5319 114.351 28.4119 114.029C28.7793 115.025 29.2892 115.474 29.7016 115.707C30.3989 116.104 30.9462 115.924 31.606 116.381C32.1609 116.763 32.4383 117.34 32.5808 117.774C32.7157 116.8 33.0081 113.699 31.1262 110.388C29.2892 107.152 26.5 105.714 25.5702 105.279L25.5478 105.294Z" fill="#FEE4C8" stroke="#D79D7C" stroke-linecap="round" stroke-linejoin="round"/>
<path d="M53.2298 41.9947C52.5175 42.0321 50.703 42.2194 49.0535 43.5303C46.9316 45.2083 46.4442 47.6579 46.5492 47.7103C46.5942 47.7328 46.7516 47.2983 47.239 47.1335C47.6514 46.9912 47.9363 47.1635 48.3862 47.1485C48.7236 47.141 49.1809 47.0287 49.7208 46.5642C49.3459 47.0212 48.0488 48.7516 48.2812 51.2012C48.5211 53.6657 50.2157 55.9205 52.6825 57.0966C52.8699 56.1003 53.2223 55.3437 53.6047 54.7744C54.1895 53.9054 54.6844 53.6807 55.0443 52.8941C55.3967 52.1226 55.4042 51.2686 55.2392 50.4521C55.6591 52.7144 56.8138 53.8455 57.2711 54.235C58.6208 55.3962 60.5327 55.8831 61.0651 56.0104C61.8673 56.1977 62.4072 56.2052 63.247 56.6022C64.1017 57.0142 64.709 57.5536 65.0989 57.9656C64.8365 57.4187 64.5066 56.5797 64.4016 55.531C64.3117 54.6695 64.4391 54.2575 64.4766 53.2013C64.5066 52.3173 64.5591 50.9989 64.2517 49.9876C64.0792 49.4108 63.4794 47.8826 60.9526 46.5193C62.2947 47.1185 63.2994 47.141 63.9818 47.0361C64.889 46.9013 65.3764 46.5193 66.606 46.3919C67.3708 46.3095 68.0156 46.3694 68.4505 46.4294C68.4205 46.0174 68.1431 43.2307 65.6463 41.3504C62.6171 39.0657 59.1381 40.2193 58.9207 40.2942C59.5655 40.0695 59.8429 39.7549 59.9779 39.4927C60.2103 39.0507 60.0679 38.7061 60.3378 38.2866C60.5702 37.9345 60.9376 37.7697 61.2225 37.6798C60.5702 37.5824 58.4933 37.3502 56.3789 38.5113C54.3095 39.6425 53.4772 41.4029 53.2298 41.9947Z" fill="#FEE4C8" stroke="#D79D7C" stroke-linecap="round" stroke-linejoin="round"/>
<path d="M54.0397 111.324C56.1916 111.527 59.7231 111.804 61.5226 109.721C62.8797 108.148 62.8572 105.676 63.577 105.699C63.577 105.699 63.847 105.699 65.0541 108.081H65.0616C65.0691 108.081 66.6962 106.373 66.5162 103.976C66.3887 102.245 65.384 101.069 64.1694 99.6384C62.9472 98.2001 61.6951 97.2638 60.8253 96.6944C63.2846 97.3836 65.7364 98.0728 68.1957 98.7695C67.8433 97.6758 67.1835 96.1626 65.8414 94.9041C63.4646 92.6717 61.3951 93.5107 58.8759 91.593C56.9489 90.1323 55.0445 87.2707 55.4118 84.0421C55.6968 81.5401 57.3388 78.8358 59.7756 77.9818C61.0503 77.5323 61.8825 77.817 67.3635 79.3152C73.3168 80.9408 74.3215 81.143 75.6861 80.8209C78.9402 80.0568 80.7922 77.1203 81.0996 76.6109C84.0162 71.8017 82.4642 64.1234 78.1829 60.6026C77.2682 59.8535 76.8933 59.831 63.3521 56.2353C61.9275 55.8533 59.9331 55.3139 57.5262 54.1078C55.3744 53.0216 54.7295 52.3325 52.945 51.3586C51.348 50.4972 48.9487 49.4709 45.5971 48.9615C44.5174 47.3509 41.5858 43.4331 36.1423 41.1633C31.6136 39.2756 27.5722 39.4629 25.6303 39.6876C17.0227 40.8862 13.6937 43.553 12.3066 45.8977C11.7667 46.8116 10.4696 49.4634 7.86783 52.8494C6.72065 54.3326 6.46572 54.4824 5.79841 55.3663C2.53684 59.6512 2.10196 64.6927 1.952 66.4606C1.47964 72.0114 3.06919 76.3038 3.87896 78.1466C4.59875 79.8021 7.32048 85.7875 13.9411 89.3832C17.8175 91.4882 21.364 91.8702 23.1185 92.0425C27.3398 92.4545 30.7813 91.7578 32.8882 91.1586C32.8208 96.9791 32.7533 102.8 32.6933 108.62C36.1873 109.167 44.9298 110.493 54.0547 111.339L54.0397 111.324Z" fill="#FFF4E6"/>
<path d="M31.3812 66.2584C31.5462 66.4382 31.4937 66.7153 31.4712 66.9176C31.2837 68.3334 31.7786 68.648 32.3484 71.5545C32.8958 74.3412 33.1657 75.7345 32.5209 76.4162C31.8311 77.1503 30.5789 77.0155 29.7017 76.9256C29.1243 76.8657 27.2799 76.6634 26.0502 75.0529C24.903 73.5621 25.0755 71.8841 25.128 71.4497C25.3154 69.8316 26.2227 68.7978 26.6501 68.3259C28.2321 66.573 30.8264 65.6291 31.3812 66.2584Z" fill="#FEE4C8"/>
<path d="M46.8792 49.6806C46.3768 48.9989 45.657 48.085 44.7048 47.0887C43.5876 45.9276 40.191 42.4667 34.7476 40.6464C32.9631 40.0471 26.8298 38.0995 20.0143 40.6464C12.8838 43.3132 8.92491 49.4859 9.29981 49.9278C9.52474 50.1975 11.3542 48.4371 15.4106 46.7516C18.9346 45.2834 21.9037 44.8114 23.0284 44.6616C25.7127 44.2946 29.799 43.7327 34.3877 45.4931C36.3971 46.2647 37.9117 47.2535 38.9164 48.0026C41.5707 48.5645 44.2249 49.1188 46.8867 49.6806H46.8792Z" fill="#FEE4C8"/>
<path d="M52.4353 66.9249C51.0482 66.7076 49.3837 67.5616 49.2112 68.8276C49.0238 70.1835 50.6358 71.6143 52.2104 71.5319C53.44 71.4719 54.8271 70.4756 54.8046 69.1722C54.7821 67.9362 53.5 67.0897 52.4428 66.9249H52.4353Z" fill="#FEE4C8"/>
<path d="M39.8013 48.8942C45.9046 48.4298 49.601 49.6508 51.8804 50.9243C52.9376 51.5161 55.4044 52.857 59.0784 54.535C59.9256 54.9245 60.9228 55.2991 62.19 55.6586C65.5715 56.625 67.281 56.5576 71.6448 57.9059C74.479 58.7824 76.7358 59.7263 78.2129 60.4005C79.645 62.026 82.3368 65.5917 82.6292 70.416C82.6967 71.4947 82.7566 73.1202 82.0368 74.993C81.0996 77.4276 79.1277 79.203 77.4781 80.042C71.2024 83.2332 64.7093 75.3676 58.9059 78.5662C57.0689 79.5775 55.8543 81.3978 55.4644 83.1058C54.6996 86.4468 56.8665 90.462 59.8206 92.3273C62.4824 94.0053 64.8967 93.376 66.7262 95.7282C67.5135 96.747 67.8209 97.8332 67.9558 98.5374C62.5274 96.5822 61.1103 96.4923 60.9378 96.8519C60.5329 97.6684 66.7112 100.388 66.7487 104.448C66.7637 106.021 65.8489 107.309 65.1291 108.118C64.3119 106.208 63.742 105.676 63.3371 105.729C62.5199 105.834 62.7748 108.268 61.3727 109.909C59.9031 111.632 57.2714 111.707 55.1045 111.639C46.9468 111.399 35.1826 108.897 32.7683 108.373C32.7683 102.672 32.7683 96.9717 32.7683 91.271" stroke="#D79D7C" stroke-linecap="round" stroke-linejoin="round"/>
<path d="M40.1462 61.1419C40.7686 59.8684 42.2681 56.3476 41.1884 52.2126C41.001 51.5009 40.5961 50.0102 39.4714 48.5494C37.0871 45.4407 33.2332 44.7964 30.7664 44.4144C20.1869 42.7963 12.1192 48.6019 12.1192 48.6019C11.152 49.2986 2.5594 55.7034 1.94457 67.1497C1.4797 75.8318 5.73849 84.9859 13.8737 89.5779C22.0539 94.1999 30.264 92.0125 31.4787 91.6679C33.7056 91.0387 42.9579 88.0422 45.4922 80.1841C48.1165 72.0414 42.733 61.1194 31.4187 55.7708C33.5106 58.5275 34.8527 61.0295 35.685 62.8274C37.1921 66.056 38.0843 68.0037 37.7244 70.5581C37.597 71.4496 37.2446 74.0115 35.1677 75.5921C32.176 77.8619 26.5376 77.3076 25.1055 74.1463C23.9358 71.5619 25.8028 67.749 28.1946 66.6853C29.4843 66.1085 30.384 66.528 33.1957 65.8238C34.6428 65.4642 35.79 64.9998 36.5098 64.6777" stroke="#D79D7C" stroke-linecap="round" stroke-linejoin="round"/>
<path d="M32.491 76.4688C32.506 76.0343 32.521 75.3751 32.476 74.5735C32.386 72.8881 32.1086 71.8018 31.9136 70.7082C31.7262 69.6669 31.5312 68.1462 31.5312 66.2285" stroke="#D79D7C" stroke-linecap="round" stroke-linejoin="round"/>
<path d="M45.927 48.8267C44.4275 46.9689 41.9532 44.3845 38.1967 42.2945C38.0993 42.2421 37.3945 41.8525 36.6522 41.508C35.9324 41.1709 29.3792 38.2119 22.6086 39.6127C12.8914 41.6203 8.37768 51.4336 7.98779 52.31" stroke="#D79D7C" stroke-linecap="round" stroke-linejoin="round"/>
<path d="M74.0366 63.0371C76.1135 63.2394 78.1904 63.4341 80.2674 63.6364" stroke="#D79D7C" stroke-linecap="round" stroke-linejoin="round"/>
<path d="M49.9534 67.352C48.8662 68.5206 49.1736 70.5357 50.4782 71.4721C51.6029 72.2886 53.3424 72.1988 54.2647 71.12C55.3219 69.8915 54.8795 67.8914 53.5599 67.0224C52.4877 66.3108 50.8681 66.3707 49.9534 67.352Z" stroke="#D79D7C" stroke-linecap="round" stroke-linejoin="round"/>
<path d="M26.26 104.777C27.9695 102.702 33.5254 96.432 39.9136 96.9339C40.9558 97.0163 43.1002 97.1811 44 98.7168C44.9822 100.395 44.3149 103.474 42.2455 104.2C40.446 104.83 38.2716 103.444 37.7243 101.871C36.952 99.6607 39.2538 96.7317 41.3532 95.2859C46.2643 91.9 51.0405 95.5181 64.4317 96.1099C69.5902 96.3347 78.7826 96.6568 80.7546 92.5742C80.8595 92.3569 81.6918 90.574 80.8895 89.0833C80.1322 87.6825 78.1528 86.9259 76.4433 87.4578C74.9212 87.9372 73.5866 89.4504 73.759 90.9037C73.9465 92.4843 75.8584 93.3607 76.6307 93.7128C81.6618 96.02 91.6115 93.8851 95.4279 86.5963C97.4148 82.8058 98.0896 76.9478 94.9405 73.0225C94.6331 72.6405 91.1841 68.468 86.8728 69.4493C84.6609 69.9512 83.2963 71.5618 82.749 72.2959" stroke="#D79D7C" stroke-linecap="round" stroke-linejoin="round"/>
<path d="M73.5492 80.9033C72.492 81.8097 66.8161 86.4842 59.9331 85.1133C58.2761 84.7837 56.8814 84.1694 55.7493 83.5102" stroke="#D79D7C" stroke-linecap="round" stroke-linejoin="round"/>
<path d="M32.5358 103.354C31.5686 103.077 30.8862 102.305 30.8113 101.429C30.7438 100.642 31.1787 100.058 31.3061 99.9081L32.8282 98.9492" stroke="#D79D7C" stroke-linecap="round" stroke-linejoin="round"/>
<path d="M42.3054 44.7589C42.8378 44.0323 43.955 42.7214 45.8219 41.8898C49.136 40.4066 52.2476 41.5378 52.9149 41.8" stroke="#D79D7C" stroke-linecap="round" stroke-linejoin="round"/>
</g>
<defs>
<clipPath id="clip0_3117_8">
<rect width="97" height="138" fill="white" transform="translate(0.482422)"/>
</clipPath>
</defs>
</svg>
