<svg width="66" height="68" viewBox="0 0 66 68" fill="none" xmlns="http://www.w3.org/2000/svg">
<path d="M36.3593 50.0123C37.7902 50.1468 40.1385 50.331 41.3351 48.9467C42.2375 47.901 42.2226 46.2577 42.7012 46.2726C42.7012 46.2726 42.8807 46.2726 43.6834 47.8562H43.6884C43.6934 47.8562 44.7753 46.7208 44.6556 45.1273C44.5709 43.977 43.9028 43.1952 43.0951 42.2441C42.2824 41.288 41.4498 40.6656 40.8714 40.2871C42.5068 40.7452 44.1371 41.2034 45.7725 41.6665C45.5381 40.9394 45.0994 39.9335 44.2069 39.097C42.6264 37.613 41.2503 38.1707 39.5751 36.896C38.2938 35.9249 37.0274 34.0227 37.2717 31.8765C37.4611 30.2133 38.553 28.4156 40.1734 27.8479C41.021 27.5492 41.5744 27.7384 45.219 28.7343C49.1778 29.8149 49.8459 29.9494 50.7533 29.7352C52.9171 29.2273 54.1486 27.2753 54.353 26.9367C56.3573 23.6302 55.2305 18.531 52.4135 16.2952C50.4741 14.7565 47.333 14.2535 45.1492 13.9099C44.6207 13.8253 43.7582 13.7107 42.5516 13.397C40.6122 12.8891 39.2112 12.2517 38.6777 11.9828C37.2468 11.2607 36.818 10.8026 35.6314 10.1553C34.5694 9.5826 32.9739 8.90039 30.7453 8.56177C30.0273 7.49115 28.0779 4.88679 24.4582 3.37796C21.4468 2.12309 18.7594 2.24758 17.4681 2.39697C11.7444 3.19371 9.53073 4.96647 8.60836 6.52509C8.24939 7.13261 7.38684 8.89541 5.65677 11.1462C4.89395 12.1322 4.72443 12.2318 4.28069 12.8194C2.11187 15.6677 1.8227 19.019 1.72298 20.1942C1.40888 23.8841 2.46587 26.7375 3.00433 27.9625C3.48297 29.063 5.29281 33.0417 9.69526 35.4319C12.2729 36.8312 14.6312 37.0852 15.7979 37.1997C18.6049 37.4736 20.8934 37.0105 22.2944 36.6121C22.2495 40.4813 22.2046 44.3505 22.1647 48.2197C24.4881 48.5832 30.3015 49.4646 36.3693 50.0273L36.3593 50.0123Z" fill="#A61928"/>
<path d="M21.2922 20.0548C21.4019 20.1743 21.367 20.3586 21.3521 20.493C21.2274 21.4342 21.5565 21.6433 21.9354 23.5754C22.2994 25.4278 22.4788 26.3541 22.0501 26.8072C21.5914 27.2952 20.7588 27.2056 20.1754 27.1458C19.7915 27.106 18.565 26.9715 17.7473 25.9009C16.9845 24.91 17.0992 23.7945 17.1341 23.5057C17.2587 22.4301 17.862 21.7429 18.1462 21.4292C19.1982 20.264 20.9233 19.6365 21.2922 20.0548Z" fill="#91172C"/>
<path d="M31.5979 9.03489C31.2638 8.58174 30.7852 7.97422 30.152 7.31193C29.4091 6.54008 27.1505 4.23949 23.5308 3.02943C22.1797 2.57628 18.226 1.25668 13.7338 3.02943C8.82275 4.97149 6.43954 9.36354 6.6639 9.59759C6.8035 9.742 8.02502 8.2979 10.6725 7.08785C12.7216 6.15167 14.4617 5.88775 15.738 5.69852C18.0814 5.34995 20.6092 4.9715 23.3613 6.09192C24.7175 6.64466 25.6997 7.3916 26.3029 7.91447C28.0679 8.28794 29.8329 8.65643 31.6028 9.02991L31.5979 9.03489Z" fill="#91172C"/>
<path d="M35.2922 20.498C34.3699 20.3536 33.263 20.9213 33.1483 21.7629C33.0237 22.6642 34.0956 23.6153 35.1427 23.5605C35.9603 23.5207 36.8827 22.8584 36.8677 21.9919C36.8528 21.1703 36.0002 20.6076 35.2972 20.498H35.2922Z" fill="#91172C"/>
<path d="M26.8913 8.51192C30.9497 8.20318 33.4077 9.01487 34.9234 9.86141C35.6264 10.2548 37.2667 11.1462 39.7097 12.2616C40.2731 12.5205 40.9363 12.7695 41.7789 13.0085C44.0274 13.6509 45.1642 13.6061 48.0659 14.5024C49.9506 15.0851 51.4513 15.7125 52.4335 16.1607C53.3858 17.2412 55.1757 19.6116 55.3701 22.8184C55.415 23.5355 55.4549 24.6161 54.9762 25.861C54.353 27.4794 53.0418 28.6596 51.9449 29.2173C47.7718 31.3386 43.4541 26.11 39.5951 28.2363C38.3736 28.9086 37.5659 30.1186 37.3066 31.254C36.798 33.4749 38.2389 36.144 40.2033 37.3839C41.9733 38.4994 43.5787 38.0811 44.7953 39.6447C45.3188 40.3219 45.5232 41.0439 45.6129 41.512C42.0032 40.2123 41.0609 40.1526 40.9462 40.3916C40.677 40.9344 44.7853 42.742 44.8102 45.441C44.8202 46.4867 44.2119 47.3432 43.7333 47.881C43.1898 46.6112 42.8109 46.2576 42.5417 46.2925C41.9982 46.3622 42.1677 47.9806 41.2354 49.0711C40.2582 50.2165 38.5082 50.2663 37.0673 50.2214C31.6427 50.0621 23.82 48.3989 22.2146 48.0503C22.2146 44.2608 22.2146 40.4713 22.2146 36.6818" stroke="#5C1414" stroke-linecap="round" stroke-linejoin="round"/>
<path d="M27.1206 16.6536C27.5344 15.807 28.5315 13.4666 27.8136 10.7178C27.6889 10.2448 27.4197 9.25381 26.6718 8.28278C25.0864 6.21623 22.5237 5.78798 20.8833 5.53402C13.8484 4.45841 8.48367 8.31764 8.48367 8.31764C7.84051 8.78074 2.12679 13.0383 1.71795 20.6472C1.40883 26.4187 4.24076 32.5038 9.65035 35.5563C15.0898 38.6287 20.5493 37.1747 21.357 36.9456C22.8378 36.5273 28.9902 34.5355 30.6754 29.3118C32.4205 23.899 28.8407 16.6386 21.3171 13.0832C22.7081 14.9157 23.6006 16.5789 24.154 17.774C25.1562 19.9202 25.7495 21.2149 25.5102 22.913C25.4254 23.5056 25.1911 25.2086 23.81 26.2593C21.8207 27.7681 18.0714 27.3996 17.1191 25.2982C16.3413 23.5803 17.5827 21.0456 19.1732 20.3385C20.0308 19.9551 20.6291 20.2339 22.4987 19.7658C23.461 19.5268 24.2238 19.2181 24.7025 19.004" stroke="#5C1414" stroke-linecap="round" stroke-linejoin="round"/>
<path d="M22.03 26.842C22.04 26.5531 22.05 26.1149 22.0201 25.5821C21.9602 24.4617 21.7758 23.7396 21.6461 23.0126C21.5215 22.3204 21.3918 21.3096 21.3918 20.0348" stroke="#5C1414" stroke-linecap="round" stroke-linejoin="round"/>
<path d="M30.9647 8.46709C29.9675 7.23214 28.3222 5.51416 25.8243 4.12484C25.7595 4.08998 25.2909 3.83104 24.7973 3.60198C24.3186 3.3779 19.961 1.41094 15.4589 2.34213C8.99728 3.67667 5.99583 10.2 5.73657 10.7826" stroke="#5C1414" stroke-linecap="round" stroke-linejoin="round"/>
<path d="M49.6565 17.9135C51.0376 18.0479 52.4186 18.1774 53.7997 18.3118" stroke="#5C1414" stroke-linecap="round" stroke-linejoin="round"/>
<path d="M33.642 20.7818C32.919 21.5586 33.1234 22.8982 33.991 23.5206C34.7388 24.0634 35.8955 24.0036 36.5088 23.2866C37.2118 22.4699 36.9176 21.1403 36.0401 20.5627C35.3272 20.0896 34.2502 20.1295 33.642 20.7818Z" stroke="#5C1414" stroke-linecap="round" stroke-linejoin="round"/>
<path d="M21.9105 44.7339C20.8037 44.8385 18.0017 45.2368 15.7082 47.2785C12.7566 49.9028 12.5422 53.5429 12.7068 53.6176C12.7816 53.6524 12.9361 53.0001 13.6591 52.7163C14.2723 52.4772 14.7509 52.7163 15.4639 52.6615C15.9824 52.6217 16.6854 52.4274 17.4233 51.7054C16.9447 52.4075 15.2894 55.0467 16.2018 58.647C17.1192 62.2672 20.2802 65.4741 24.4034 67.0527C24.4732 65.5687 24.8621 64.4334 25.3308 63.5619C26.0488 62.2374 26.7767 61.8738 27.1656 60.6937C27.5495 59.5284 27.37 58.2736 26.9312 57.0784C28.0879 60.3949 30.157 61.9834 30.9448 62.5262C33.3131 64.1495 36.4142 64.7371 37.2768 64.8815C38.578 65.1006 39.4256 65.0807 40.8266 65.6136C42.2576 66.1563 43.3295 66.9232 44.0275 67.5058C43.499 66.719 42.791 65.499 42.3922 63.9653C42.0631 62.6955 42.1628 62.078 41.9933 60.5244C41.8487 59.2197 41.6294 57.2677 40.9313 55.7987C40.5375 54.9621 39.2561 52.7412 34.9982 50.9087C37.2369 51.7004 38.8124 51.6606 39.8594 51.4614C41.2454 51.1975 41.9285 50.6049 43.8231 50.326C44.9998 50.1518 46.0268 50.1916 46.7248 50.2563C46.5802 49.6538 45.5382 45.5605 41.2056 42.9462C35.9605 39.7791 30.7603 41.7162 30.4412 41.8407C31.3985 41.4672 31.7675 40.9792 31.922 40.5858C32.1863 39.9236 31.8871 39.4156 32.2261 38.7782C32.5103 38.2454 33.0538 37.9765 33.4776 37.8271C32.4356 37.7275 29.13 37.5283 26.0737 39.3858C23.0822 41.1983 22.1698 43.8525 21.9155 44.7339H21.9105Z" fill="#91172C" stroke="#5C1414" stroke-linecap="round" stroke-linejoin="round"/>
<path d="M17.4132 46.0037C17.3634 45.2866 17.129 43.4591 15.733 41.7112C13.9381 39.4704 11.3804 38.813 11.3206 38.9077C11.2957 38.9475 11.7544 39.1417 11.9388 39.6397C12.0984 40.0629 11.9239 40.3318 11.9438 40.79C11.9588 41.1236 12.0884 41.5967 12.582 42.1644C12.0984 41.761 10.2686 40.3368 7.72085 40.3966C5.15317 40.4613 2.83976 42.005 1.65812 44.3853C2.70016 44.6442 3.4929 45.0476 4.09618 45.4708C5.01855 46.1132 5.25787 46.6261 6.08551 47.0444C6.89819 47.4527 7.78566 47.5224 8.63824 47.4129C6.28494 47.6718 5.12824 48.7524 4.73436 49.1757C3.54774 50.4405 3.07908 52.3228 2.9644 52.8457C2.7899 53.6375 2.78491 54.1753 2.38605 54.9869C1.97722 55.8136 1.41881 56.3812 1 56.7398C1.56339 56.5157 2.43092 56.2468 3.52281 56.2119C4.42025 56.1821 4.85402 56.3364 5.95089 56.451C6.87326 56.5456 8.24934 56.685 9.29636 56.451C9.88967 56.3215 11.4801 55.8235 12.8462 53.3934C12.2479 54.6981 12.2479 55.699 12.3726 56.3912C12.5371 57.3075 12.941 57.8253 13.1005 59.0653C13.2002 59.8371 13.1554 60.4795 13.1005 60.9127C13.5293 60.9127 16.426 60.833 18.3456 58.4627C20.669 55.5945 19.3976 52.024 19.3178 51.8099C19.5621 52.4722 19.9011 52.771 20.1754 52.9254C20.639 53.1893 21.003 53.0698 21.4418 53.3735C21.8107 53.6275 21.9952 54.0109 22.0899 54.2997C22.1797 53.6524 22.3741 51.5908 21.1227 49.3898C19.9011 47.2386 18.0464 46.2825 17.4282 45.9937L17.4132 46.0037Z" fill="#91172C" stroke="#5C1414" stroke-linecap="round" stroke-linejoin="round"/>
<path d="M35.8208 3.92566C35.3472 3.95056 34.1406 4.07505 33.0437 4.94649C31.6327 6.06193 31.3087 7.69027 31.3785 7.72513C31.4084 7.74007 31.5131 7.45125 31.8372 7.3417C32.1114 7.24708 32.3008 7.36162 32.6 7.35166C32.8244 7.34668 33.1285 7.27198 33.4875 6.96324C33.2382 7.267 32.3756 8.4173 32.5302 10.0456C32.6897 11.6839 33.8165 13.1828 35.4569 13.9646C35.5815 13.3023 35.8158 12.7994 36.0701 12.4209C36.459 11.8433 36.7881 11.6939 37.0274 11.171C37.2617 10.6581 37.2667 10.0905 37.157 9.54768C37.4362 11.0515 38.204 11.8035 38.5082 12.0624C39.4056 12.8342 40.677 13.1579 41.031 13.2426C41.5645 13.3671 41.9234 13.372 42.4818 13.636C43.0502 13.9098 43.4541 14.2684 43.7133 14.5423C43.5388 14.1787 43.3194 13.621 43.2496 12.9239C43.1898 12.3512 43.2746 12.0773 43.2995 11.3752C43.3194 10.7876 43.3544 9.9112 43.1499 9.23894C43.0353 8.85551 42.6364 7.83966 40.9562 6.93337C41.8486 7.33174 42.5167 7.34668 42.9704 7.27696C43.5737 7.18733 43.8978 6.93337 44.7155 6.84871C45.224 6.79394 45.6528 6.83377 45.942 6.87361C45.922 6.59973 45.7376 4.7473 44.0773 3.49741C42.063 1.97862 39.7496 2.74548 39.605 2.79528C40.0338 2.64589 40.2183 2.43675 40.308 2.26246C40.4626 1.96866 40.3679 1.7396 40.5473 1.46074C40.7019 1.22669 40.9462 1.11714 41.1357 1.05738C40.7019 0.992648 39.3208 0.83828 37.9148 1.61012C36.5388 2.36205 35.9853 3.53227 35.8208 3.92566Z" fill="#91172C" stroke="#5C1414" stroke-linecap="round" stroke-linejoin="round"/>
<path d="M17.887 45.6601C19.0237 44.2807 22.7182 40.1128 26.9661 40.4464C27.6591 40.5012 29.0851 40.6107 29.6833 41.6316C30.3365 42.747 29.8928 44.7936 28.5167 45.2767C27.3201 45.695 25.8742 44.7737 25.5102 43.728C24.9967 42.259 26.5273 40.312 27.9234 39.3509C31.1891 37.1001 34.365 39.5053 43.2696 39.8986C46.6999 40.048 52.8124 40.2622 54.1237 37.5482C54.1935 37.4038 54.7469 36.2187 54.2135 35.2277C53.7099 34.2965 52.3936 33.7936 51.2569 34.1472C50.2448 34.4658 49.3573 35.4717 49.472 36.4378C49.5966 37.4885 50.868 38.0711 51.3815 38.3052C54.727 39.8389 61.3431 38.4197 63.8809 33.5745C65.2021 31.0548 65.6509 27.1607 63.5568 24.5514C63.3524 24.2974 61.0589 21.5237 58.1921 22.1761C56.7213 22.5097 55.8139 23.5803 55.4499 24.0683" stroke="#5C1414" stroke-linecap="round" stroke-linejoin="round"/>
<path d="M49.3324 29.79C48.6294 30.3926 44.8551 33.4999 40.2782 32.5886C39.1763 32.3695 38.2489 31.9612 37.4961 31.523" stroke="#5C1414" stroke-linecap="round" stroke-linejoin="round"/>
<path d="M22.0601 44.714C21.417 44.5298 20.9632 44.0169 20.9134 43.4343C20.8685 42.9114 21.1577 42.523 21.2425 42.4234L22.2546 41.786" stroke="#5C1414" stroke-linecap="round" stroke-linejoin="round"/>
<path d="M28.5566 5.76329C28.9056 5.28524 29.6485 4.4138 30.895 3.85608C33.0538 2.89003 35.083 3.59714 35.5318 3.77143" stroke="#5C1414" stroke-linecap="round" stroke-linejoin="round"/>
</svg>
