<svg width="24" height="25" viewBox="0 0 24 25" fill="none" xmlns="http://www.w3.org/2000/svg">
<g clip-path="url(#clip0_3117_294)">
<path d="M11.9679 0.285034C5.33781 0.285034 0 5.62285 0 12.253C0 18.8831 5.33781 24.2209 11.9679 24.2209C18.5981 24.2209 23.9359 18.8831 23.9359 12.253C23.9359 5.62285 18.5981 0.285034 11.9679 0.285034ZM20.2837 7.47704H16.7439C16.3506 5.95997 15.7887 4.4991 15.0583 3.20679C17.3058 3.93722 19.1038 5.45429 20.2837 7.47704ZM11.9679 2.7011C12.9793 4.16197 13.7659 5.73522 14.2716 7.47704H9.66425C10.1699 5.73522 10.9566 4.16197 11.9679 2.7011ZM2.697 14.669C2.47225 13.8824 2.35988 13.0958 2.35988 12.253C2.35988 11.4102 2.47225 10.6235 2.697 9.83691H6.7425C6.63013 10.6235 6.57394 11.4102 6.57394 12.253C6.57394 13.0958 6.63013 13.8824 6.7425 14.669H2.697ZM3.65219 17.0289H7.192C7.58532 18.546 8.14719 20.0069 8.87763 21.2992C6.63013 20.5687 4.83213 19.0517 3.65219 17.0289ZM7.192 7.47704H3.65219C4.83213 5.45429 6.63013 3.93722 8.87763 3.20679C8.14719 4.4991 7.58532 5.95997 7.192 7.47704ZM11.9679 21.8049C10.9566 20.344 10.1699 18.7707 9.66425 17.0289H14.2716C13.7659 18.7707 12.9793 20.344 11.9679 21.8049ZM14.7773 14.669H9.15857C9.04619 13.8824 8.99 13.0958 8.99 12.253C8.99 11.4102 9.04619 10.6235 9.15857 9.83691H14.7773C14.8897 10.6235 14.9459 11.4102 14.9459 12.253C14.9459 13.0958 14.8897 13.8824 14.7773 14.669ZM15.0583 21.2992C15.7887 20.0069 16.3506 18.546 16.7439 17.0289H20.2837C19.1038 19.0517 17.3058 20.5687 15.0583 21.2992ZM17.1934 14.669C17.3058 13.8824 17.3619 13.0958 17.3619 12.253C17.3619 11.4102 17.3058 10.6235 17.1934 9.83691H21.2389C21.4636 10.6235 21.576 11.4102 21.576 12.253C21.576 13.0958 21.4636 13.8824 21.2389 14.669H17.1934Z" fill="#91172C"/>
</g>
<defs>
<clipPath id="clip0_3117_294">
<rect width="23.9359" height="23.9359" fill="white" transform="translate(0 0.285034)"/>
</clipPath>
</defs>
</svg>
