<svg width="24" height="18" viewBox="0 0 24 18" fill="none" xmlns="http://www.w3.org/2000/svg">
<g id="menu 1" clip-path="url(#clip0_3172_212)">
<path id="Vector" d="M22.7919 8.05895H1.21584C0.859988 8.05895 0.569689 8.16664 0.344938 8.38202C0.120187 8.59741 0.0078125 8.88303 0.0078125 9.23888C0.0078125 9.61347 0.120187 9.90845 0.344938 10.1238C0.569689 10.3392 0.859988 10.4469 1.21584 10.4469H22.7919C23.1477 10.4469 23.438 10.3392 23.6628 10.1238C23.8875 9.90845 23.9999 9.61347 23.9999 9.23888C23.9999 8.88303 23.8875 8.59741 23.6628 8.38202C23.438 8.16664 23.1477 8.05895 22.7919 8.05895ZM1.21584 3.25491H22.7919C23.1477 3.25491 23.438 3.14722 23.6628 2.93183C23.8875 2.71645 23.9999 2.42147 23.9999 2.04688C23.9999 1.69103 23.8875 1.40541 23.6628 1.19002C23.438 0.974635 23.1477 0.866943 22.7919 0.866943H1.21584C0.859988 0.866943 0.569689 0.974635 0.344938 1.19002C0.120187 1.40541 0.0078125 1.69103 0.0078125 2.04688C0.0078125 2.42147 0.120187 2.71645 0.344938 2.93183C0.569689 3.14722 0.859988 3.25491 1.21584 3.25491ZM22.7919 15.2509H1.21584C0.859988 15.2509 0.569689 15.3586 0.344938 15.574C0.120187 15.7894 0.0078125 16.075 0.0078125 16.4309C0.0078125 16.8055 0.120187 17.1005 0.344938 17.3158C0.569689 17.5312 0.859988 17.6389 1.21584 17.6389H22.7919C23.1477 17.6389 23.438 17.5312 23.6628 17.3158C23.8875 17.1005 23.9999 16.8055 23.9999 16.4309C23.9999 16.075 23.8875 15.7894 23.6628 15.574C23.438 15.3586 23.1477 15.2509 22.7919 15.2509Z" fill="#FEE4C8"/>
</g>
<defs>
<clipPath id="clip0_3172_212">
<rect width="23.9921" height="16.772" fill="white" transform="translate(0.0078125 0.866943)"/>
</clipPath>
</defs>
</svg>
