<svg width="37" height="37" viewBox="0 0 37 37" fill="none" xmlns="http://www.w3.org/2000/svg">
<g id="reddit 1" clip-path="url(#clip0_3199_177)">
<path id="Vector" d="M16.0304 20.363C16.0304 20.854 15.8499 21.2801 15.4889 21.6411C15.1278 22.0021 14.7018 22.1827 14.2108 22.1827C13.6909 22.1827 13.2504 22.0021 12.8893 21.6411C12.5283 21.2801 12.3478 20.854 12.3478 20.363C12.3478 19.8431 12.5283 19.4026 12.8893 19.0416C13.2504 18.6805 13.6909 18.5 14.2108 18.5C14.7018 18.5 15.1278 18.6805 15.4889 19.0416C15.8499 19.4026 16.0304 19.8431 16.0304 20.363ZM22.356 24.7822C21.8649 25.1288 21.3234 25.4032 20.7313 25.6054C20.1391 25.8076 19.5109 25.9087 18.8466 25.9087C18.7888 25.9087 18.7311 25.9087 18.6733 25.9087C18.6155 25.9087 18.5578 25.9087 18.5 25.9087C18.4711 25.9087 18.4278 25.9087 18.37 25.9087C18.3123 25.9087 18.2689 25.9087 18.24 25.9087C17.5468 25.9087 16.897 25.8004 16.2904 25.5837C15.6838 25.3671 15.1351 25.0855 14.644 24.7389C14.6151 24.71 14.5718 24.6811 14.5141 24.6522C14.4563 24.6233 14.3985 24.6089 14.3407 24.6089C14.1963 24.6089 14.0808 24.6594 13.9941 24.7605C13.9075 24.8616 13.8642 24.9844 13.8642 25.1288C13.8642 25.1866 13.8714 25.2443 13.8858 25.3021C13.9003 25.3599 13.9219 25.4032 13.9508 25.4321C14.6151 25.9231 15.3372 26.2914 16.1171 26.5369C16.897 26.7824 17.6913 26.8907 18.5 26.8618C18.5578 26.8618 18.6155 26.8618 18.6733 26.8618C18.7311 26.8618 18.7888 26.8618 18.8466 26.8618C19.6265 26.8618 20.3847 26.7319 21.1212 26.4719C21.8577 26.2119 22.5148 25.8653 23.0925 25.4321V25.5187C23.1214 25.461 23.1503 25.4032 23.1792 25.3454C23.208 25.2877 23.2225 25.2155 23.2225 25.1288C23.2225 25.071 23.2153 25.0061 23.2008 24.9338C23.1864 24.8616 23.1503 24.8111 23.0925 24.7822C23.0347 24.7244 22.977 24.6811 22.9192 24.6522C22.8614 24.6233 22.8037 24.6089 22.7459 24.6089C22.6593 24.6089 22.587 24.6233 22.5293 24.6522C22.4715 24.6811 22.4137 24.7244 22.356 24.7822ZM22.7459 18.5867C22.226 18.5867 21.7855 18.7672 21.4245 19.1282C21.0634 19.4893 20.8829 19.9153 20.8829 20.4063C20.8829 20.9262 21.0634 21.3667 21.4245 21.7278C21.7855 22.0888 22.226 22.2693 22.7459 22.2693V22.356C22.7459 22.356 22.7531 22.356 22.7676 22.356C22.782 22.356 22.8037 22.356 22.8326 22.356C23.3236 22.3271 23.7424 22.1321 24.089 21.7711C24.4356 21.41 24.6089 20.984 24.6089 20.493C24.6089 20.493 24.6089 20.4858 24.6089 20.4713C24.6089 20.4569 24.6089 20.4352 24.6089 20.4063C24.6089 19.9153 24.4284 19.4893 24.0673 19.1282C23.7063 18.7672 23.2658 18.5867 22.7459 18.5867ZM18.5 0C15.9582 0 13.5609 0.491018 11.308 1.47307C9.05502 2.42623 7.09095 3.74043 5.41569 5.41569C3.74043 7.09095 2.42623 9.05502 1.47307 11.308C0.491018 13.5609 0 15.9582 0 18.5C0 21.0418 0.491018 23.4391 1.47307 25.692C2.42623 27.945 3.74043 29.909 5.41569 31.5843C7.09095 33.2596 9.05502 34.5738 11.308 35.5269C13.5609 36.509 15.9582 37 18.5 37C21.0418 37 23.4391 36.509 25.692 35.5269C27.945 34.5738 29.909 33.2596 31.5843 31.5843C33.2596 29.909 34.5738 27.945 35.5269 25.692C36.509 23.4391 37 21.0418 37 18.5C37 15.9582 36.509 13.5609 35.5269 11.308C34.5738 9.05502 33.2596 7.09095 31.5843 5.41569C29.909 3.74043 27.945 2.42623 25.692 1.47307C23.4391 0.491018 21.0418 0 18.5 0ZM29.3314 20.9696C29.3314 21.0851 29.3314 21.2151 29.3314 21.3595C29.3314 21.5039 29.3314 21.6339 29.3314 21.7494C29.3314 22.7892 29.0425 23.7713 28.4649 24.6956C27.9161 25.591 27.1507 26.3852 26.1686 27.0785C25.1866 27.7717 24.0457 28.306 22.7459 28.6815C21.4461 29.0859 20.0453 29.2881 18.5433 29.2881C17.0703 29.2881 15.6694 29.0859 14.3407 28.6815C13.041 28.306 11.9073 27.7717 10.9397 27.0785C9.97209 26.3852 9.19946 25.591 8.62178 24.6956C8.0441 23.7713 7.75527 22.7892 7.75527 21.7494C7.75527 21.6916 7.75527 21.6339 7.75527 21.5761C7.75527 21.5183 7.75527 21.4461 7.75527 21.3595C7.75527 21.3017 7.75527 21.2367 7.75527 21.1645C7.75527 21.0923 7.76971 21.0129 7.79859 20.9262L7.75527 20.9696C7.29313 20.7385 6.91764 20.4063 6.62881 19.9731C6.33997 19.5398 6.19555 19.0488 6.19555 18.5C6.19555 18.1534 6.26054 17.8212 6.39052 17.5035C6.52049 17.1858 6.70101 16.897 6.93208 16.637C7.19204 16.377 7.48809 16.1749 7.82026 16.0304C8.15242 15.886 8.50624 15.8138 8.88173 15.8138C9.25722 15.8138 9.60382 15.8788 9.92155 16.0088C10.2393 16.1388 10.5137 16.3193 10.7447 16.5504C11.7557 15.8571 12.8749 15.3084 14.1025 14.904C15.33 14.4996 16.6081 14.283 17.9368 14.2541L19.3232 7.84192C19.3521 7.72639 19.4171 7.62529 19.5182 7.53864C19.6192 7.45199 19.742 7.40867 19.8864 7.40867C19.9153 7.40867 19.937 7.40867 19.9514 7.40867C19.9658 7.40867 19.9875 7.40867 20.0164 7.40867L24.5222 8.3185C24.6956 8.02966 24.9266 7.80582 25.2155 7.64696C25.5043 7.48809 25.8076 7.40867 26.1253 7.40867C26.6452 7.40867 27.0857 7.58919 27.4467 7.95023C27.8078 8.31128 27.9883 8.73731 27.9883 9.22834C27.9883 9.74825 27.8078 10.1887 27.4467 10.5498C27.0857 10.9108 26.6452 11.0913 26.1253 11.0913C25.6632 11.0913 25.2588 10.9325 24.9122 10.6148C24.5656 10.297 24.3634 9.90711 24.3056 9.44497L20.363 8.62178L19.1499 14.3841C20.4785 14.413 21.7494 14.6296 22.9625 15.034C24.1756 15.4383 25.2877 15.9871 26.2986 16.6803L26.2553 16.637C26.5152 16.4059 26.8041 16.2254 27.1218 16.0954C27.4395 15.9655 27.7717 15.9005 28.1183 15.9005C28.8692 15.9005 29.5047 16.1532 30.0246 16.6587C30.5445 17.1641 30.8189 17.7779 30.8478 18.5C30.8478 19.0199 30.7106 19.5037 30.4362 19.9514C30.1618 20.3991 29.7935 20.7385 29.3314 20.9696Z" fill="#FFF4E6"/>
</g>
<defs>
<clipPath id="clip0_3199_177">
<rect width="37" height="37" fill="white"/>
</clipPath>
</defs>
</svg>
