<svg width="24" height="24" viewBox="0 0 24 24" fill="none" xmlns="http://www.w3.org/2000/svg">
<path d="M10.9922 21.4857C10.9922 22.0479 10.7969 22.5241 10.4062 22.9145C10.0156 23.3048 9.54688 23.5 9 23.5C8.45312 23.5 7.98438 23.3048 7.59375 22.9145C7.20312 22.5241 7.00781 22.0479 7.00781 21.4857C7.00781 20.9392 7.20312 20.4708 7.59375 20.0804C7.98438 19.6901 8.45312 19.4949 9 19.4949C9.54688 19.4949 10.0156 19.6901 10.4062 20.0804C10.7969 20.4708 10.9922 20.9392 10.9922 21.4857ZM22.0078 21.4857C22.0078 22.0479 21.8125 22.5241 21.4219 22.9145C21.0312 23.3048 20.5547 23.5 19.9922 23.5C19.4453 23.5 18.9766 23.3048 18.5859 22.9145C18.1953 22.5241 18 22.0479 18 21.4857C18 20.9392 18.1953 20.4708 18.5859 20.0804C18.9766 19.6901 19.4453 19.4949 19.9922 19.4949C20.5547 19.4949 21.0312 19.6901 21.4219 20.0804C21.8125 20.4708 22.0078 20.9392 22.0078 21.4857ZM23.7891 5.91039C23.6953 5.75424 23.5781 5.64885 23.4375 5.5942C23.2969 5.53955 23.1484 5.51222 22.9922 5.51222H6.79688L6 1.29633C5.95312 1.0465 5.83594 0.851325 5.64844 0.710794C5.46094 0.570264 5.24219 0.5 4.99219 0.5H1.00781C0.695311 0.5 0.44922 0.593686 0.269531 0.781059C0.0898425 0.968433 0 1.21045 0 1.50713C0 1.8038 0.0898425 2.04582 0.269531 2.2332C0.44922 2.42057 0.695311 2.51426 1.00781 2.51426H4.19531L4.99219 6.70672C4.99219 6.70672 4.99219 6.72234 4.99219 6.75356C4.99219 6.78479 4.99219 6.80041 4.99219 6.80041L6.70312 15.0917C6.84375 15.7943 7.1875 16.372 7.73438 16.8248C8.28125 17.2777 8.90625 17.5041 9.60938 17.5041C9.60938 17.5041 9.61328 17.5041 9.62109 17.5041C9.62891 17.5041 9.65625 17.5041 9.70312 17.5041H19.4062C20.1563 17.5041 20.8047 17.2777 21.3516 16.8248C21.8984 16.372 22.25 15.7943 22.4062 15.0917L24 6.70672C24 6.55058 23.9922 6.40224 23.9766 6.26171C23.9609 6.12118 23.8984 6.00407 23.7891 5.91039ZM20.3906 14.6935C20.3438 14.9433 20.2305 15.1385 20.0508 15.279C19.8711 15.4196 19.6563 15.4898 19.4062 15.4898H9.70312C9.45312 15.4898 9.23438 15.4196 9.04688 15.279C8.85937 15.1385 8.74219 14.9433 8.69531 14.6935L7.19531 7.50306H21.7969L20.3906 14.6935Z" fill="#FEE4C8" fill-opacity="0.8"/>
</svg>
