<svg width="30" height="29" viewBox="0 0 30 29" fill="none" xmlns="http://www.w3.org/2000/svg">
<g clip-path="url(#clip0_3117_298)">
<path d="M13.8398 25.6309C13.8398 26.3051 13.6057 26.8764 13.1374 27.3446C12.6692 27.8128 12.1073 28.0469 11.4518 28.0469C10.7963 28.0469 10.2344 27.8128 9.7662 27.3446C9.29797 26.8764 9.06385 26.3051 9.06385 25.6309C9.06385 24.9753 9.29797 24.4135 9.7662 23.9452C10.2344 23.477 10.7963 23.2429 11.4518 23.2429C12.1073 23.2429 12.6692 23.477 13.1374 23.9452C13.6057 24.4135 13.8398 24.9753 13.8398 25.6309ZM27.0439 25.6309C27.0439 26.3051 26.8097 26.8764 26.3415 27.3446C25.8733 27.8128 25.302 28.0469 24.6278 28.0469C23.9723 28.0469 23.4104 27.8128 22.9422 27.3446C22.4739 26.8764 22.2398 26.3051 22.2398 25.6309C22.2398 24.9753 22.4739 24.4135 22.9422 23.9452C23.4104 23.477 23.9723 23.2429 24.6278 23.2429C25.302 23.2429 25.8733 23.477 26.3415 23.9452C26.8097 24.4135 27.0439 24.9753 27.0439 25.6309ZM29.179 6.94852C29.0666 6.76123 28.9261 6.63481 28.7576 6.56926C28.589 6.5037 28.4111 6.47093 28.2238 6.47093H8.81101L7.85582 1.41405C7.79963 1.11438 7.65917 0.88027 7.43441 0.711706C7.20966 0.543143 6.94746 0.458862 6.64779 0.458862H1.87185C1.49726 0.458862 1.20228 0.571236 0.986897 0.795987C0.77151 1.02074 0.663818 1.31104 0.663818 1.66689C0.663818 2.02275 0.77151 2.31305 0.986897 2.5378C1.20228 2.76255 1.49726 2.87493 1.87185 2.87493H5.6926L6.64779 7.90371C6.64779 7.90371 6.64779 7.92244 6.64779 7.9599C6.64779 7.99735 6.64779 8.01608 6.64779 8.01608L8.69863 17.9613C8.8672 18.8041 9.27923 19.4971 9.93476 20.0402C10.5903 20.5834 11.3394 20.8549 12.1823 20.8549C12.1823 20.8549 12.1869 20.8549 12.1963 20.8549C12.2057 20.8549 12.2384 20.8549 12.2946 20.8549H23.9255C24.8245 20.8549 25.6017 20.5834 26.2572 20.0402C26.9128 19.4971 27.3342 18.8041 27.5215 17.9613L29.4318 7.90371C29.4318 7.71642 29.4225 7.53849 29.4037 7.36993C29.385 7.20136 29.3101 7.0609 29.179 6.94852ZM25.1054 17.4837C25.0492 17.7833 24.9134 18.0175 24.698 18.186C24.4826 18.3546 24.2251 18.4389 23.9255 18.4389H12.2946C11.995 18.4389 11.7328 18.3546 11.508 18.186C11.2833 18.0175 11.1428 17.7833 11.0866 17.4837L9.2886 8.8589H26.791L25.1054 17.4837Z" fill="#91172C"/>
</g>
<defs>
<clipPath id="clip0_3117_298">
<rect width="28.768" height="27.5881" fill="white" transform="translate(0.663818 0.458862)"/>
</clipPath>
</defs>
</svg>
