<svg width="23" height="25" viewBox="0 0 23 25" fill="none" xmlns="http://www.w3.org/2000/svg">
<g id="user 1" clip-path="url(#clip0_3172_208)">
<path id="Vector" d="M16.104 14.655H6.49593C5.67185 14.655 4.89459 14.8048 4.16415 15.1045C3.43371 15.4229 2.79693 15.849 2.25378 16.3828C1.71063 16.9166 1.28923 17.5487 0.989557 18.2791C0.67116 19.0095 0.511963 19.7962 0.511963 20.639V23.0269C0.511963 23.4015 0.619654 23.6965 0.835041 23.9119C1.05043 24.1273 1.34541 24.235 1.71999 24.235C2.07585 24.235 2.36147 24.1273 2.57685 23.9119C2.79224 23.6965 2.89993 23.4015 2.89993 23.0269V20.639C2.89993 19.6276 3.24642 18.7754 3.9394 18.0824C4.63238 17.3895 5.48455 17.043 6.49593 17.043H16.104C17.1154 17.043 17.9676 17.3895 18.6605 18.0824C19.3535 18.7754 19.7 19.6276 19.7 20.639V23.0269C19.7 23.4015 19.8077 23.6965 20.0231 23.9119C20.2385 24.1273 20.5241 24.235 20.8799 24.235C21.2545 24.235 21.5495 24.1273 21.7649 23.9119C21.9803 23.6965 22.088 23.4015 22.088 23.0269V20.639C22.088 19.7962 21.9288 19.0095 21.6104 18.2791C21.3107 17.5487 20.8893 16.9166 20.3462 16.3828C19.803 15.849 19.1662 15.4229 18.4358 15.1045C17.7053 14.8048 16.9281 14.655 16.104 14.655ZM11.3 12.2389C12.1428 12.2389 12.9294 12.0891 13.6598 11.7894C14.3903 11.471 15.0224 11.045 15.5562 10.5112C16.09 9.97739 16.516 9.34528 16.8344 8.61484C17.1341 7.8844 17.2839 7.09778 17.2839 6.25497C17.2839 5.41215 17.1341 4.62553 16.8344 3.89509C16.516 3.16465 16.09 2.53255 15.5562 1.99876C15.0224 1.46498 14.3903 1.03889 13.6598 0.720496C12.9294 0.420828 12.1428 0.270996 11.3 0.270996C10.4571 0.270996 9.67053 0.420828 8.94009 0.720496C8.20965 1.03889 7.57755 1.46498 7.04376 1.99876C6.50998 2.53255 6.08389 3.16465 5.7655 3.89509C5.46583 4.62553 5.316 5.41215 5.316 6.25497C5.316 7.09778 5.46583 7.8844 5.7655 8.61484C6.08389 9.34528 6.50998 9.97739 7.04376 10.5112C7.57755 11.045 8.20965 11.471 8.94009 11.7894C9.67053 12.0891 10.4571 12.2389 11.3 12.2389ZM11.3 2.65897C12.3113 2.65897 13.1635 3.00545 13.8565 3.69843C14.5495 4.39142 14.896 5.24359 14.896 6.25497C14.896 7.26635 14.5495 8.11852 13.8565 8.8115C13.1635 9.50448 12.3113 9.85097 11.3 9.85097C10.2886 9.85097 9.43642 9.50448 8.74343 8.8115C8.05045 8.11852 7.70397 7.26635 7.70397 6.25497C7.70397 5.24359 8.05045 4.39142 8.74343 3.69843C9.43642 3.00545 10.2886 2.65897 11.3 2.65897Z" fill="#FEE4C8"/>
</g>
<defs>
<clipPath id="clip0_3172_208">
<rect width="21.576" height="23.964" fill="white" transform="translate(0.511963 0.270996)"/>
</clipPath>
</defs>
</svg>
